<svg viewBox="0 0 500 500" fill="none" xmlns="http://www.w3.org/2000/svg">
<style>
	path, rect {
		fill: #1bbc9b;
	}
	g.sprite {
		display: none;
	}
	g.sprite:target {
		display: inline;
        transform-origin: center center;
	}
</style>
    <filter id="blur"><feGaussianBlur in="SourceGraphic" stdDeviation="0" /></filter>
<g class="sprite" id="lusha" filter="url(#blur)">
<path d="M58.9316 279.533C43.4647 279.533 30.9263 267.206 30.9263 252C30.9263 236.794 43.4647 224.467 58.9316 224.467C74.3985 224.467 86.9369 236.794 86.9369 252C86.9369 267.206 74.3985 279.533 58.9316 279.533ZM58.9316 271.133C69.6798 271.133 78.3929 262.567 78.3929 252C78.3929 241.433 69.6798 232.867 58.9316 232.867C48.1834 232.867 39.4703 241.433 39.4703 252C39.4703 262.567 48.1834 271.133 58.9316 271.133Z" fill="black"/>
<path d="M140.574 279.533C125.107 279.533 112.569 267.206 112.569 252C112.569 236.794 125.107 224.467 140.574 224.467C156.041 224.467 168.579 236.794 168.579 252C168.579 267.206 156.041 279.533 140.574 279.533ZM140.574 271.133C151.322 271.133 160.035 262.567 160.035 252C160.035 241.433 151.322 232.867 140.574 232.867C129.826 232.867 121.113 241.433 121.113 252C121.113 262.567 129.826 271.133 140.574 271.133Z" fill="black"/>
<path d="M118.743 245.61C112.43 241.842 106.139 239.918 99.9095 239.918C93.6367 239.918 87.5189 241.87 81.6287 245.696C79.6601 246.974 79.1185 249.58 80.419 251.515C81.7195 253.45 84.3696 253.983 86.3382 252.704C90.8813 249.754 95.3809 248.318 99.9095 248.318C104.482 248.318 109.268 249.782 114.309 252.79C116.326 253.994 118.953 253.362 120.178 251.38C121.402 249.397 120.76 246.814 118.743 245.61Z" fill="black"/>
<path fill-rule="evenodd" clip-rule="evenodd" d="M241.505 269.448H214.674V204.845C214.674 203.876 214.037 203.23 213.083 203.23H206.402C205.447 203.23 204.811 203.876 204.811 204.845V276.985C204.811 277.954 205.447 278.6 206.402 278.6H241.505C242.459 278.6 243.095 277.954 243.095 276.985V271.063C243.095 270.094 242.459 269.448 241.505 269.448ZM298.666 225.841H292.303C291.349 225.841 290.713 226.487 290.713 227.456V259.004C290.713 262.45 285.728 271.279 276.396 271.279C269.396 271.279 264.624 266.649 264.624 257.389V227.456C264.624 226.487 263.988 225.841 263.033 225.841H256.67C255.716 225.841 255.079 226.487 255.079 227.456V258.466C255.079 272.571 262.609 280 274.381 280C281.698 280 287.107 276.016 290.713 270.633L291.137 276.985C291.243 277.954 291.773 278.6 292.727 278.6H298.666C299.621 278.6 300.257 277.954 300.257 276.985V227.456C300.257 226.487 299.621 225.841 298.666 225.841ZM322.316 239.515C322.316 234.563 326.876 232.732 330.588 232.732C335.148 232.732 338.224 234.563 342.36 237.9C343.208 238.654 344.056 238.869 344.693 238.008L347.132 234.886C347.662 234.132 347.874 233.378 347.238 232.624C342.89 227.456 336.103 224.657 330.27 224.657C320.937 224.657 313.195 230.579 313.195 239.515C313.195 257.174 340.769 252.867 340.769 264.388C340.769 268.91 336.739 271.279 331.33 271.279C325.391 271.279 320.301 267.725 317.225 265.141C316.271 264.388 315.635 264.172 314.892 265.034L312.135 268.802C311.605 269.448 311.605 270.094 312.241 270.848C315.953 275.262 322.846 279.677 331.648 279.677C340.769 279.677 350.101 273.863 350.101 264.495C350.101 245.653 322.316 250.498 322.316 239.515ZM388.28 224.657C380.432 224.657 374.705 229.071 370.993 234.67V201.615C370.993 200.646 370.357 200 369.403 200H363.04C362.085 200 361.449 200.646 361.449 201.615V276.985C361.449 277.954 362.085 278.6 363.04 278.6H369.403C370.357 278.6 370.993 277.954 370.993 276.985V245.33C370.993 243.069 376.084 233.378 385.735 233.378C392.522 233.378 397.082 237.9 397.082 247.052V276.985C397.082 277.954 397.718 278.6 398.673 278.6H405.036C405.99 278.6 406.627 277.954 406.627 276.985V245.976C406.627 231.871 399.097 224.657 388.28 224.657ZM469.409 225.841C470.364 225.841 471 226.487 471 227.456V276.985C471 277.954 470.364 278.6 469.409 278.6H463.789C462.834 278.6 462.304 277.954 462.198 276.985L461.667 270.633C457.744 275.908 451.805 279.354 443.957 279.354C429.216 279.354 418.611 267.187 418.611 252.328C418.611 236.931 429.216 224.764 443.957 224.764C451.805 224.764 457.85 228.425 461.774 234.024L462.198 227.456C462.304 226.487 462.834 225.841 463.789 225.841H469.409ZM444.911 270.525C454.774 270.525 461.88 262.557 461.88 252.221C461.88 241.992 454.774 233.594 444.911 233.594C435.049 233.594 427.731 241.454 427.731 252.221C427.731 262.557 435.049 270.525 444.911 270.525Z" fill="black"/>
</g>

<g class="sprite" id="codefresh" filter="url(#blur)">
<path id="Vector" d="M81.5116 234.793C85.2665 239.177 87.9761 244.357 89.4355 249.942C90.8949 255.527 91.0661 261.37 89.9361 267.031C101.879 262.268 106.512 254.281 107.922 246.294C107.922 246.294 111.992 231.159 118.321 224.868C105.816 226.831 104.552 221.924 81.5116 234.805" fill="black"/>
<path id="Vector_2" d="M62.3803 250.263C59.8803 242.54 55.5693 235.528 49.8072 229.812C49.8072 229.812 67.1965 234.383 77.2077 266.838C67.7616 263.988 63.731 254.666 62.3616 250.263H62.3803ZM83.8964 271.502C84.1759 269.95 88.784 254.25 79.6547 241.5C64.3676 224.558 41.3268 222.179 41.3268 222.179C45.8232 230.874 45.966 238.991 50.8785 255.542C56.8312 272.676 78.7945 273.831 80.4216 273.862C81.8966 276.191 85.2782 279.328 93.0196 280.949L93.8766 276.868C87.1973 275.471 84.7534 272.9 83.915 271.484" fill="black"/>
<path id="Vector_3" d="M43.7924 217.192C34.0761 221.769 30.1791 232.942 30.1791 250.021C30.1791 266.789 34.0699 278.03 43.7924 282.936L42.7024 287.128C27.7694 281.893 21 270.254 21 250.089C21 229.768 27.7694 218.124 42.7024 213L43.7924 217.192Z" fill="black"/>
<path id="Vector_4" d="M115.747 213C130.692 218.117 137.446 229.768 137.446 250.083C137.446 270.267 130.677 281.893 115.744 287.085L114.579 282.899C124.308 278.011 128.192 266.751 128.192 249.983C128.192 232.905 124.302 221.744 114.579 217.167L115.747 213Z" fill="black"/>
<path id="Vector_5" d="M181.963 267.987C177.458 269.717 172.658 270.546 167.834 270.428C155.95 270.428 150.24 265.28 152.078 252.275C153.773 240.009 158.462 234.997 170.896 234.997C175.78 234.917 180.638 235.744 185.22 237.438L183.531 244.953L172.461 244.884C167.433 244.884 165.735 246.58 164.918 252.672C164.033 259.38 165.194 260.597 170.082 260.597C173.756 260.619 177.429 260.438 181.084 260.057L181.963 267.987Z" fill="black"/>
<path id="Vector_6" d="M201.802 253.287C200.852 260.199 201.46 261.82 205.882 261.82C210.161 261.82 211.524 259.995 212.608 252.337C213.692 245.294 212.95 243.642 208.801 243.642C204.32 243.642 202.96 245.332 201.802 253.269V253.287ZM225.367 253.293C223.504 265.963 218.374 270.428 205.441 270.428C192.508 270.428 187.058 265.553 188.956 252.343C190.732 239.543 195.886 234.997 209.003 234.997C221.973 234.997 227.274 240.015 225.374 253.293" fill="black"/>
<path id="Vector_7" d="M251.79 242.91C246.626 242.91 245.405 243.99 244.384 251.784C243.57 257.883 243.434 260.317 246.489 260.119C249.352 259.841 252.035 258.599 254.1 256.597L255.929 242.934L251.79 242.91ZM264.624 269.614H254.911L254.777 263.926C251.334 267.677 246.607 269.998 241.533 270.428C233.655 270.428 230.125 264.87 231.817 252.002C233.68 237.91 239.223 234.997 246.489 234.997C250.134 234.996 253.772 235.325 257.357 235.979C257.322 233.665 257.482 231.353 257.836 229.066L258.988 222.235H271.337L264.624 269.614Z" fill="black"/>
<path id="Vector_8" d="M293.561 249.561C296.62 249.288 298.244 248.816 298.53 245.903C298.735 243.667 297.85 243.257 294.449 243.326C290.301 243.394 288.944 244.611 287.86 250.101L293.561 249.561ZM307.081 267.72C302.148 269.642 296.882 270.563 291.59 270.428C277.191 270.428 273.269 264.131 274.539 252.343C276.091 238.326 282.491 235.004 294.645 235.004C307.96 235.004 311.46 239.407 310.401 247.114C309.448 253.418 305.169 255.219 296.247 255.92L287.075 256.597C287.217 260.193 288.978 260.87 292.785 260.87C295.766 260.87 302.126 260.529 306.228 260.057L307.081 267.72Z" fill="black"/>
<path id="Vector_9" d="M336.966 226.421C332.818 226.421 331.125 227.371 330.514 231.7L329.768 236.6H340.016L339.329 241.649H329.082L324.598 273.422C324.555 274.776 324.237 276.108 323.665 277.336C323.093 278.565 322.278 279.665 321.269 280.57C320.26 281.474 319.078 282.165 317.794 282.601C316.511 283.037 315.153 283.207 313.801 283.104C311.055 283.085 308.312 282.902 305.588 282.557L306.609 277.676H311.702C315.782 277.676 317.475 276.725 318.093 272.397L322.44 241.655H316.54L317.161 236.91L323.207 236.575L324.024 230.675C324.064 229.32 324.381 227.987 324.956 226.759C325.53 225.531 326.35 224.433 327.364 223.534C328.379 222.634 329.567 221.952 330.855 221.529C332.143 221.106 333.504 220.951 334.855 221.074C338.098 221.034 341.341 221.191 344.565 221.546L343.481 226.452L336.966 226.421Z" fill="black"/>
<path id="Vector_10" d="M367.941 241.841H366.078C362.351 241.841 358.743 244.326 353.002 248.549L350.08 269.615H343.487L348.17 236.556H353.2L352.859 244.145C358.138 238.73 363.314 235.674 367.804 235.674H369.571L367.941 241.841Z" fill="black"/>
<path id="Vector_11" d="M390.833 251.051C394.91 250.784 396.674 249.635 397.214 245.835C397.835 241.295 395.522 241.177 390.221 241.177C383.504 241.177 381.191 243.003 379.766 252.082L390.833 251.051ZM400.341 268.534C395.916 269.885 391.304 270.527 386.678 270.434C375.188 270.434 371.26 264.534 372.884 252.213C374.654 239.339 379.2 235.681 391.205 235.681C402.074 235.681 404.725 239.748 403.772 246.387C402.688 252.958 398.884 255.33 390.802 255.939L379.312 256.958C379.244 263.597 382.368 264.944 387.662 264.944C391.336 264.944 396.087 264.541 399.894 264.131L400.341 268.534Z" fill="black"/>
<path id="Vector_12" d="M418.537 253.219C413.786 250.983 411.545 248.412 412.153 243.593C412.901 237.295 417.454 235.519 426.148 235.668C430.899 235.748 435.639 236.134 440.339 236.823L439.523 241.481C435.315 241.351 431.371 241.208 426.347 241.14C420.91 241.14 418.873 241.276 418.531 244.052C418.196 246.536 419.773 247.238 422.478 248.455L431.446 252.523C436.604 254.896 438.715 256.995 438.029 262.075C437.014 269.596 431.645 270.341 422.335 270.341C418.039 270.35 413.749 270.033 409.501 269.391L410.25 264.516C413.308 264.783 417.584 264.857 420.643 264.857C428.999 264.857 431.173 264.18 431.576 261.466C431.983 259.032 430.334 258.622 427.431 257.268L418.537 253.219Z" fill="black"/>
<path id="Vector_13" d="M458.216 235.202C457.831 237.942 457.287 240.656 456.586 243.332C462.346 238.252 467.159 235.668 471.923 235.668C473.123 235.513 474.342 235.66 475.471 236.096C476.6 236.532 477.601 237.244 478.385 238.166C479.168 239.088 479.709 240.191 479.957 241.376C480.206 242.56 480.154 243.787 479.807 244.947L476.276 269.602H469.755L472.947 246.574C473.491 242.438 472.742 241.22 469.892 241.22C465.811 241.22 461.877 243.996 456.191 248.468L453.269 269.583H446.665L453.387 222.167H459.908L458.216 235.202Z" fill="black"/>
</g>
<g class="sprite" id="ironsource" filter="url(#blur)">
<path id="ironSource_2" fill-rule="evenodd" clip-rule="evenodd" d="M457.884 246.358C456.952 247.379 456.321 248.767 455.984 250.514L467.109 250.528C466.858 248.738 466.259 247.339 465.313 246.34C464.858 245.85 464.305 245.462 463.689 245.202C463.074 244.943 462.411 244.817 461.744 244.833C460.099 244.833 458.812 245.34 457.884 246.361V246.358ZM454.691 269.448C452.623 268.662 450.733 267.469 449.132 265.939C447.571 264.43 446.345 262.607 445.538 260.589C444.68 258.433 444.254 256.128 444.283 253.807C444.283 251.391 444.713 249.155 445.555 247.095C446.368 245.084 447.574 243.257 449.103 241.723C450.623 240.206 452.436 239.019 454.544 238.171C456.76 237.298 459.123 236.866 461.503 236.898C464.03 236.898 466.274 237.29 468.234 238.063C470.126 238.796 471.87 239.868 473.38 241.227C475.388 243.064 476.889 245.392 477.735 247.983C478.656 250.69 479.075 253.628 478.989 256.792L455.974 256.763C456.307 258.636 456.991 260.096 458.024 261.139C459.052 262.181 460.475 262.706 462.288 262.71C464.392 262.71 465.894 261.919 466.779 260.337L478.348 260.355C477.968 261.894 477.243 263.326 476.226 264.54C475.151 265.87 473.807 267.035 472.205 268.035C470.728 268.988 469.159 269.674 467.492 270.084C465.66 270.52 463.781 270.729 461.898 270.706C459.242 270.703 456.841 270.282 454.691 269.448ZM419.383 269.491C417.305 268.693 415.405 267.49 413.792 265.953C412.231 264.444 411.006 262.621 410.197 260.603C409.343 258.467 408.917 256.184 408.943 253.883C408.947 251.47 409.373 249.23 410.215 247.17C411.034 245.148 412.265 243.32 413.828 241.802C415.438 240.252 417.343 239.042 419.429 238.246C421.598 237.394 424.013 236.97 426.669 236.973C428.781 236.952 430.883 237.273 432.894 237.922C434.768 238.548 436.392 239.425 437.757 240.551C439.126 241.676 440.23 243.024 441.072 244.589C441.911 246.149 442.437 247.871 442.645 249.744L431.141 249.73C430.804 248.27 430.281 247.156 429.564 246.386C428.848 245.61 427.837 245.225 426.529 245.225C424.676 245.225 423.303 245.987 422.418 247.53C421.529 249.072 421.085 251.197 421.081 253.901C421.078 256.565 421.537 258.661 422.461 260.186C423.389 261.707 424.78 262.469 426.633 262.473C428.106 262.473 429.213 262.005 429.955 261.07C430.693 260.132 431.148 258.748 431.317 256.914L442.825 256.932C442.825 258.888 442.43 260.707 441.645 262.397C440.864 264.087 439.768 265.55 438.355 266.802C436.851 268.1 435.111 269.094 433.231 269.728C431.103 270.454 428.869 270.81 426.622 270.782C423.966 270.778 421.554 270.35 419.383 269.491ZM395.998 242.683C397.31 240.684 398.754 239.267 400.335 238.44C401.919 237.606 403.739 237.193 405.804 237.196C406.689 237.196 407.345 237.304 407.767 237.513L407.753 247.573H407.499C403.958 246.983 401.22 247.447 399.277 248.968C397.339 250.485 396.364 253.056 396.36 256.68L396.342 269.739L384.39 269.725L384.437 237.854L395.815 237.868L395.812 242.683H395.998ZM368.722 265.576H368.532C367.41 267.152 365.948 268.454 364.256 269.387C362.636 270.257 360.708 270.692 358.472 270.688C356.537 270.688 354.849 270.379 353.415 269.775C352.048 269.215 350.827 268.348 349.846 267.24C348.873 266.109 348.143 264.788 347.702 263.361C347.204 261.743 346.961 260.056 346.982 258.363L347.011 237.804L358.959 237.818L358.938 255.566C358.931 258.942 360.36 260.632 363.228 260.635C364.787 260.635 365.998 260.136 366.865 259.14C367.729 258.14 368.166 256.767 368.166 255.016L368.191 237.829L380.14 237.847L380.097 269.718L368.714 269.703L368.722 265.576ZM330.733 260.305C331.665 258.665 332.131 256.49 332.131 253.779C332.138 251.071 331.675 248.892 330.751 247.246C329.826 245.599 328.436 244.775 326.583 244.772C324.73 244.772 323.357 245.592 322.469 247.235C321.583 248.878 321.135 251.053 321.132 253.764C321.128 256.472 321.569 258.651 322.451 260.297C323.336 261.94 324.705 262.767 326.558 262.771C328.411 262.771 329.805 261.951 330.733 260.305ZM319.372 269.351C317.303 268.558 315.413 267.354 313.817 265.813C312.272 264.298 311.057 262.477 310.251 260.466C309.398 258.331 308.971 256.047 308.997 253.746C308.997 251.33 309.423 249.09 310.269 247.03C311.085 245.014 312.304 243.187 313.849 241.662C315.391 240.144 317.243 238.958 319.415 238.106C321.587 237.257 324.02 236.833 326.719 236.837C329.418 236.837 331.851 237.268 334.019 238.127C336.191 238.987 338.033 240.177 339.546 241.698C341.062 243.219 342.23 245.013 343.047 247.077C343.868 249.14 344.276 251.38 344.273 253.797C344.292 256.095 343.87 258.375 343.029 260.513C342.242 262.518 341.046 264.336 339.517 265.849C337.929 267.391 336.044 268.59 333.976 269.372C331.805 270.225 329.371 270.649 326.672 270.645C323.974 270.642 321.54 270.21 319.372 269.351ZM279.294 269.703C276.953 269.147 274.729 268.182 272.721 266.852C270.895 265.627 269.381 263.987 268.303 262.066C267.227 260.146 266.675 257.896 266.636 255.314L280.169 255.332C280.373 257.126 281.143 258.449 282.469 259.305C283.795 260.161 285.552 260.589 287.745 260.592C288.379 260.592 289.042 260.531 289.737 260.409C290.387 260.299 291.016 260.088 291.601 259.783C292.153 259.496 292.605 259.107 292.963 258.629C293.321 258.154 293.5 257.579 293.5 256.914C293.522 256.301 293.322 255.701 292.938 255.224C292.485 254.711 291.924 254.304 291.296 254.034C290.58 253.7 289.684 253.387 288.609 253.096C287.533 252.801 286.304 252.484 284.914 252.15C283.014 251.69 281.079 251.143 279.101 250.521C277.201 249.93 275.385 249.098 273.696 248.044C272.101 247.047 270.744 245.712 269.718 244.132C268.69 242.546 268.177 240.569 268.177 238.192C268.181 235.65 268.679 233.486 269.675 231.695C270.668 229.908 272.005 228.452 273.693 227.326C275.51 226.15 277.526 225.316 279.642 224.867C282.007 224.341 284.423 224.083 286.845 224.098C289.164 224.098 291.411 224.349 293.583 224.853C295.636 225.308 297.592 226.126 299.36 227.269C301.044 228.376 302.392 229.793 303.403 231.522C304.41 233.255 304.936 235.33 304.972 237.743L291.888 237.725C291.714 236.578 291.117 235.54 290.214 234.816C289.311 234.086 287.953 233.723 286.139 233.719C284.663 233.719 283.473 234.007 282.566 234.586C281.659 235.168 281.204 235.916 281.204 236.837C281.204 237.502 281.434 238.041 281.896 238.462C282.362 238.879 283.043 239.246 283.95 239.558C284.856 239.871 285.971 240.166 287.3 240.439C288.626 240.709 290.132 241.058 291.816 241.475C293.716 241.935 295.568 242.489 297.378 243.14C299.192 243.787 300.811 244.653 302.245 245.739C303.679 246.825 304.825 248.17 305.685 249.773C306.546 251.38 306.976 253.369 306.972 255.742C306.972 258.201 306.449 260.358 305.413 262.21C304.377 264.062 302.976 265.612 301.202 266.859C299.432 268.107 297.367 269.052 295.002 269.692C292.547 270.348 290.016 270.671 287.476 270.652C284.72 270.671 281.973 270.352 279.294 269.703ZM242.696 242.032C244.004 240.285 245.491 238.954 247.158 238.041C248.824 237.124 250.795 236.668 253.071 236.675C256.823 236.675 259.648 237.807 261.54 240.058C263.432 242.313 264.378 245.272 264.371 248.939L264.342 269.559L252.394 269.541L252.419 251.794C252.419 250.126 252.064 248.795 251.347 247.792C250.631 246.793 249.498 246.289 247.936 246.289C246.42 246.289 245.23 246.857 244.363 248.001C243.499 249.148 243.065 250.593 243.062 252.344L243.036 269.531L231.088 269.509L231.135 237.642L242.513 237.656L242.506 242.032H242.696ZM214.602 260.146C215.534 258.503 216 256.328 216 253.62C216.007 250.909 215.548 248.731 214.62 247.087C213.696 245.441 212.305 244.614 210.452 244.61C208.599 244.61 207.227 245.43 206.338 247.073C205.453 248.72 205.008 250.895 205.005 253.602C204.998 256.31 205.438 258.489 206.32 260.136C207.205 261.782 208.571 262.606 210.427 262.609C212.28 262.609 213.674 261.793 214.602 260.146ZM203.242 269.193C201.172 268.398 199.283 267.193 197.687 265.651C196.14 264.137 194.926 262.316 194.121 260.305C193.267 258.17 192.841 255.888 192.866 253.588C192.866 251.172 193.293 248.932 194.139 246.872C194.954 244.854 196.172 243.026 197.719 241.5C199.26 239.983 201.113 238.796 203.285 237.948C205.456 237.095 207.89 236.671 210.588 236.675C213.287 236.678 215.721 237.11 217.889 237.969C220.057 238.825 221.903 240.015 223.419 241.536C224.939 243.07 226.129 244.901 226.916 246.915C227.75 249.055 228.166 251.337 228.142 253.635C228.161 255.933 227.739 258.213 226.898 260.351C226.112 262.358 224.916 264.176 223.386 265.691C221.863 267.186 220.018 268.359 217.846 269.214C215.674 270.063 213.24 270.487 210.542 270.483C207.843 270.48 205.41 270.052 203.242 269.189V269.193ZM179.918 242.384C181.23 240.385 182.678 238.969 184.254 238.142C185.838 237.308 187.659 236.894 189.727 236.898C190.612 236.898 191.268 237.006 191.687 237.214L191.673 247.274H191.422C187.881 246.685 185.14 247.149 183.197 248.666C181.258 250.183 180.284 252.758 180.28 256.382L180.262 269.441L168.31 269.423L168.357 237.556L179.739 237.57L179.732 242.384H179.918ZM164.06 237.548L164.017 269.419L152.064 269.401L152.111 237.534L164.06 237.548ZM164.077 224.741L164.063 233.676L152.118 233.658L152.129 224.723L164.077 224.741ZM87.7203 278.466C74.6608 278.448 68.4105 271.479 68.4249 262.692V260.031L83.0613 260.053V261.211C83.0577 264.08 84.545 266.05 87.387 266.054C90.0103 266.061 91.3005 264.849 91.3041 262.803C91.3113 256.997 68.9266 257.942 68.9481 241.673C68.9589 232.903 74.5246 225.263 88.3689 225.281C100.805 225.302 106.976 232.281 106.962 241.047V243.905L92.3291 243.884V242.248C92.3326 239.889 91.1177 237.531 88.351 237.527C86.1469 237.527 84.8747 238.749 84.8711 240.713C84.8604 247.134 107.234 245.52 107.213 261.775C107.198 270.552 101.371 278.483 87.7203 278.466ZM65.9198 235.966L51.5128 235.945L51.5307 224.533L65.9377 224.554L65.9198 235.966ZM65.9198 248.666C65.9162 253.462 64.2999 256.163 60.7555 257.14C64.4648 258.625 65.9055 261.275 65.8947 266.931L65.8875 275.233L51.3838 275.114L51.4017 264.267C51.4017 262.102 49.0113 261.84 47.0401 261.167L47.0509 253.398C49.022 252.75 51.416 252.132 51.4232 250.417L51.4339 238.947L65.9377 238.969L65.9234 248.666H65.9198ZM77.535 193C46.309 193 21 218.294 21 249.5C21 280.706 46.309 306 77.5314 306C108.754 306 134.063 280.706 134.063 249.5C134.063 218.294 108.754 193 77.5314 193H77.535Z" fill="black"/>
</g>
<g class="sprite" id="bitmain" filter="url(#blur)">
<path id="Bitmain" d="M27 249.735V222.469L50.4398 222.473C75.0774 222.477 78.3569 222.689 82.4974 224.55C87.0987 226.617 88.5786 229.91 88.3229 237.511C88.1273 243.323 87.1936 245.628 84.4338 247.111C83.4731 247.628 82.692 248.156 82.6981 248.285C82.7035 248.414 83.5572 248.905 84.5937 249.376C85.6303 249.848 86.9633 250.904 87.556 251.723C88.5498 253.097 88.6451 253.798 88.78 260.723C88.9195 267.874 88.8721 268.334 87.793 270.345C86.4765 272.799 83.9974 274.595 80.3048 275.771C77.9672 276.516 74.9761 276.626 52.3436 276.803L27 277V249.735ZM75.2038 268.298C78.1415 267.072 78.6219 266.068 78.798 260.789C78.941 256.5 78.8553 255.894 77.9435 254.751C77.3861 254.052 76.1366 253.263 75.1669 252.997C74.1007 252.705 66.2077 252.513 55.1992 252.512L36.9946 252.51V260.724V268.938H55.3335C69.7418 268.938 74.0005 268.801 75.2038 268.299V268.298ZM76.981 243.323C78.2326 242.088 78.7728 236.799 77.9519 233.816C77.0273 230.457 76.9745 230.449 55.5715 230.449H36.9946V237.504V244.56L56.4952 244.428C75.4926 244.299 76.0212 244.27 76.981 243.323ZM101.246 249.458V222H106.481H111.717V249.458V276.916H106.481H101.246V249.458ZM149.791 253.683V230.449H135.513H121.235V226.459V222.469H154.789H188.342V226.459V230.449H174.302H160.262V253.683V276.916H155.027H149.791V253.683ZM197.385 249.693V222.469H202.104H206.822L223.087 244.532C232.033 256.666 239.53 266.486 239.747 266.353C239.965 266.22 247.35 256.292 256.159 244.291L272.174 222.469H276.662H281.15V249.693V276.916H276.396H271.642L271.517 257.823L271.393 238.73L257.353 257.836L243.313 276.942L239.064 276.812L234.815 276.682L220.978 257.972L207.142 239.263L207.017 258.09L206.893 276.916H202.139H197.385L197.385 249.693ZM288.368 276.494C288.455 276.262 296.665 264.018 306.612 249.284L324.698 222.495L328.505 222.485L332.313 222.476L338.312 231.508C341.612 236.476 349.797 248.725 356.502 258.728L368.693 276.916H362.859H357.026L343.004 255.301C335.291 243.412 328.803 233.643 328.585 233.592C328.366 233.541 321.736 243.268 313.851 255.208L299.514 276.916H293.862C290.718 276.916 288.28 276.729 288.368 276.494V276.494ZM375.861 249.458V222H381.334H386.807V249.458V276.916H381.334H375.861V249.458ZM399.182 249.693V222.469L403.584 222.481L407.987 222.492L435.073 242.429C449.971 253.394 462.339 262.366 462.559 262.366C462.778 262.366 462.957 253.389 462.957 242.418V222.469H467.479H472V249.735V277L469.263 276.831L466.527 276.663L437.424 255.668C421.417 244.121 408.192 234.673 408.034 234.673C407.877 234.673 407.749 244.178 407.749 255.795V276.916H403.465H399.182V249.693Z" fill="black"/>
</g>
<g class="sprite" id="initech" filter="url(#blur)">
<path id="Vector_14" d="M198.561 230.117V269.38H192.597C192.1 269.38 191.603 268.883 191.603 268.386V229.123H197.815C198.064 229.123 198.561 229.62 198.561 230.117Z" fill="black"/>
<path id="Vector_15" d="M242.794 241.051V269.38H236.581C236.084 269.38 235.587 268.883 235.587 268.386V240.554C235.587 238.069 233.599 235.833 230.866 235.833H216.453C215.956 235.833 215.459 236.33 215.459 236.827V268.634C215.459 269.131 214.962 269.628 214.465 269.628H208.749V234.342C208.749 231.36 210.986 229.123 213.968 229.123H231.114C237.575 229.123 242.794 234.342 242.794 241.051Z" fill="black"/>
<path id="Vector_16" d="M259.94 230.117V269.38H253.727C253.231 269.38 252.734 268.883 252.734 268.386V229.123H258.946C259.443 229.123 259.94 229.62 259.94 230.117Z" fill="black"/>
<path id="Vector_17" d="M290.008 263.664V269.38H281.808C275.347 269.38 270.128 264.161 270.128 257.7V209.74H276.092C276.589 209.74 277.086 210.237 277.086 210.734V230.863C277.583 229.869 278.329 229.372 279.323 229.372H287.772V235.087C287.772 235.584 287.275 235.833 286.778 235.833H276.838V257.949C276.838 260.682 278.826 262.67 281.559 262.67H288.766C289.511 262.67 290.008 263.167 290.008 263.664Z" fill="black"/>
<path id="Vector_18" d="M297.215 257.7V240.803C297.215 233.348 302.433 229.372 308.894 229.372H319.58C326.041 229.372 331.259 233.348 331.259 240.803V249.997C331.259 251.239 331.011 252.482 329.271 252.482H307.155C305.912 252.482 304.67 251.985 303.924 250.991V258.197C303.924 260.931 305.912 262.919 308.646 262.919H328.526C329.023 262.919 329.52 263.416 329.52 263.913V269.38H308.646C302.433 269.38 297.215 264.161 297.215 257.7ZM308.894 235.833C306.161 235.833 304.173 237.324 304.173 240.554V244.779C304.173 245.276 304.421 245.524 304.918 245.773H323.556C324.053 245.773 324.55 245.276 324.55 244.779V240.554C324.55 237.324 323.059 235.833 319.828 235.833H308.894Z" fill="black"/>
<path id="Vector_19" d="M347.412 240.803V257.949C347.412 260.682 349.4 262.67 352.133 262.67H366.298C366.795 262.67 367.292 263.167 367.292 263.664V269.38H352.133C345.672 269.38 340.454 264.161 340.454 257.7V241.051C340.454 234.59 345.672 229.372 352.133 229.372H367.292V235.087C367.292 235.584 366.795 235.833 366.298 235.833H352.133C349.648 235.833 347.412 238.069 347.412 240.803Z" fill="black"/>
<path id="Vector_20" d="M376.486 209.243H382.698C383.195 209.243 383.692 209.74 383.692 210.237V232.105C384.686 230.863 386.674 229.62 389.159 229.62H399.348C405.809 229.62 410.53 233.348 410.53 240.803V269.38H404.318C403.821 269.38 403.324 268.883 403.324 268.386V240.554C403.324 237.821 401.336 235.833 398.602 235.833H387.42C385.432 236.081 383.692 237.821 383.444 239.809V269.38H377.231C376.734 269.38 376.237 268.883 376.237 268.386V209.243H376.486Z" fill="black"/>
<path id="Vector_21" d="M171.723 220.038H152.722V205.307C152.722 203.607 154.122 202.285 155.922 202.285H168.523C170.323 202.285 171.723 203.607 171.723 205.307V220.038Z" fill="black"/>
<path id="Vector_22" d="M105.519 296.715H92.9184C91.1182 296.715 89.7182 295.393 89.7182 293.693V278.962H108.719V293.693C108.719 295.393 107.319 296.715 105.519 296.715Z" fill="black"/>
<path id="Vector_23" d="M152.722 228.914V293.882C152.722 295.582 154.122 296.904 155.922 296.904H161.922H163.122C166.723 296.904 171.523 296.148 171.723 291.993V228.914H152.722Z" fill="black"/>
<path id="Vector_24" d="M105.519 202.285H99.5187H98.3187C94.7185 202.285 89.9182 203.041 89.7182 207.007V270.086H108.719V205.307C108.719 203.607 107.319 202.285 105.519 202.285Z" fill="black"/>
<path id="Vector_25" d="M170.123 293.126C168.923 292.56 168.323 291.616 163.322 283.495L114.32 206.251C112.719 203.796 109.919 202.285 106.719 202.285H105.519H99.5187H98.3187C94.7185 202.285 89.9182 203.041 89.7182 207.007C89.7182 207.007 89.9182 205.496 91.3183 205.874C92.1183 206.062 92.7183 207.007 98.1186 215.316L146.721 291.804C148.522 294.826 151.922 296.526 155.722 296.526H156.122H162.122H163.322C166.923 296.526 171.523 295.771 171.923 291.993C171.523 292.56 171.123 293.504 170.123 293.126Z" fill="black"/>
</g>
<g class="sprite" id="tikal" filter="url(#blur)">
<path id="Union" d="M353.351 223.147V276.057H393V269.184H363.592V223.147H353.351Z" fill="black"/>
<path id="Union_2" fill-rule="evenodd" clip-rule="evenodd" d="M275.4 276.057C281.876 253.111 287.315 241.411 302.836 224.293H312.259C327.78 241.411 333.22 253.111 339.695 276.057H330.827C329.503 271.309 328.25 267.11 326.914 263.258H293.83L296.047 256.717H324.415C320.682 247.904 315.862 240.526 307.548 231.403C293.954 246.32 289.701 256.57 284.269 276.057H275.4Z" fill="black"/>
<path id="Union_3" fill-rule="evenodd" clip-rule="evenodd" d="M197.739 276.057L197.739 223.147L207.98 223.147L207.98 242.683C222.827 240.612 230.659 236.065 243.961 225.167H256.649C254.415 229.239 243.653 236.605 232.155 242.391C244.985 252.076 251.411 260.33 260.35 276.057H249.965C244.22 263.447 237.773 256.557 223.95 246.179C217.939 248.688 212.235 250.439 207.98 250.718L207.98 276.057H197.739Z" fill="black"/>
<rect id="Rectangle" x="171.008" y="276.057" width="52.4921" height="10.2411" transform="rotate(-90 171.008 276.057)"/>
<path id="Union_4" fill-rule="evenodd" clip-rule="evenodd" d="M126 230.437L126 276.057H136.241L136.241 230.437H154.517V223.565H136.241V223.565L126 223.565V223.565H107V230.437H126Z" fill="black"/>
<path id="Vector 3" d="M175.356 217.919C168.15 208.773 147.643 214.316 141.823 183C168.905 183.819 175.455 192.19 175.356 217.919Z" fill="black"/>
</g>
<g class="sprite" id="appnext">
    <path id="Vector" d="M50.8686 262.489L50.9643 277.824C51.0003 282.041 54.4203 285.437 58.6157 285.42L73.8683 285.323L62.3684 273.904L50.8686 262.489ZM122.261 236.05L122.165 220.716C122.123 216.5 118.707 213.108 114.513 213.119L99.2608 213.211L110.761 224.63L122.261 236.05Z" fill="black"/>
    <path id="Vector_2" d="M114.967 285.06C119.162 285.024 122.539 281.586 122.522 277.368L122.427 262.034L99.7141 285.156L114.967 285.06Z" fill="black"/>
    <path id="Vector_3" d="M49.6848 244.102C46.7471 247.11 46.7786 251.939 49.7553 254.908L60.6054 265.685L60.4039 233.189L49.6848 244.102Z" fill="black"/>
    <path id="Vector_4" d="M70.569 275.57L81.4241 286.341C84.4139 289.299 89.2197 289.27 92.1735 286.276L102.893 275.362L86.7283 275.469L70.569 275.57ZM102.56 222.969L91.705 212.198C88.7109 209.244 83.9059 209.275 80.9506 212.269L70.2567 223.172L86.416 223.07L102.56 222.969Z" fill="black"/>
    <path id="Vector_5" d="M123.374 243.626L112.519 232.854L112.715 265.351L123.439 254.438C126.382 251.43 126.352 246.597 123.374 243.626Z" fill="black"/>
    <path id="Vector_6" d="M58.1674 213.479C53.9733 213.518 50.5976 216.955 50.6117 221.171L50.7023 236.506L73.415 213.383L58.1674 213.479Z" fill="black"/>
    <path id="Vector_7" d="M197.073 284.959L196.735 229.882L206.261 229.821L206.301 236.04L207.308 234.738C210.156 230.956 214.599 228.732 219.317 228.727C229.87 228.666 236.741 236.769 236.816 249.378C236.892 261.988 230.122 270.258 219.569 270.319C214.824 270.349 210.643 268.293 207.48 264.373L206.472 263.107L206.608 284.883L197.073 284.959ZM215.997 237.133C212.366 237.133 208.341 239.235 206.427 242.076L206.326 242.223L206.417 256.909L206.517 257.051C208.442 259.876 212.587 261.988 216.154 261.963C222.561 261.922 227.004 256.777 226.958 249.439C226.913 242.101 222.405 237.093 215.997 237.133ZM163.198 270.668C152.277 270.734 144.6 262.211 144.525 249.941C144.449 237.67 152.025 229.142 162.941 229.076C167.661 229.017 172.136 231.186 175.03 234.936L176.037 236.227V229.922L185.81 229.861L186.051 269.493L176.279 269.554L176.239 263.274L175.232 264.551C172.098 268.531 167.943 270.638 163.198 270.668ZM166.351 237.437C159.591 237.478 154.332 242.947 154.373 249.885C154.413 256.823 159.742 262.307 166.502 262.262C170.068 262.262 174.189 260.079 176.073 257.233L176.168 257.086L176.083 242.4L175.982 242.258C174.023 239.443 169.993 237.417 166.351 237.437ZM245.284 284.66L244.946 229.583L254.456 229.527L254.497 235.746L255.504 234.444C258.35 230.661 262.794 228.436 267.513 228.433C278.066 228.367 284.936 236.47 285.012 249.08C285.087 261.689 278.317 269.959 267.765 270.025C263.02 270.055 258.839 267.999 255.675 264.074L254.668 262.814L254.799 284.589L245.284 284.66ZM264.188 236.835C260.556 236.835 256.532 238.936 254.618 241.777L254.517 241.924L254.607 256.61L254.708 256.757C256.632 259.578 260.778 261.689 264.344 261.669C270.752 261.629 275.194 256.478 275.149 249.146C275.104 241.813 270.616 236.799 264.188 236.835ZM320.731 268.688L320.605 244.649C320.569 239.159 317.93 236.506 312.545 236.546C307.301 236.576 304.057 240.05 302.904 241.544L302.783 241.696L302.949 268.804L293.439 268.86L293.197 229.294L302.707 229.233L302.748 235.427L303.755 234.257C306.239 231.32 311.14 228.18 317.456 228.129C325.576 228.079 330.105 232.454 330.175 240.456L330.346 268.627L320.731 268.688ZM359.074 269.463C346.677 269.539 337.963 261.026 337.887 248.756C337.817 236.926 346.526 227.947 358.152 227.897C369.969 227.805 377.928 236.506 378.028 249.52V251.48L347.836 251.662L347.941 252.321C348.858 258.139 353.679 261.872 360.212 261.831C363.441 261.831 367.989 260.525 370.82 258.099L374.991 264.176C371.238 267.462 365.34 269.422 359.074 269.463ZM358.197 235.493C351.185 235.538 348.213 240.511 347.795 244.755L347.735 245.383L368.941 245.251L368.881 244.633C368.488 240.395 365.436 235.457 358.197 235.493Z" fill="black"/>
    <path id="Vector_8" d="M409.774 268.142L400.162 254.018L390.641 268.264L380.204 268.323L394.106 247.905L380.798 228.753L391.322 228.687L400.085 241.559L408.609 228.58L419.137 228.514L406.141 247.835L420.291 268.08L409.774 268.142Z" fill="black"/>
    <path id="Vector_9" d="M442.247 268.951C435.059 268.997 431.392 265.442 431.347 258.377L431.216 236.652L424.512 236.693L424.461 228.479L431.166 228.438L431.1 217.297L440.61 217.262L440.676 228.403L448.897 228.352L448.947 236.566L440.726 236.617L440.842 255.476C440.842 258.514 442.585 260.585 445.129 260.57C446.309 260.577 447.47 260.275 448.499 259.694L450.478 266.683C448.685 268.121 445.784 268.916 442.247 268.951Z" fill="black"/>
</g>
    <g class="sprite" id="vonage">
        <path id="Vector" d="M48.2171 201H26L57.6937 273.009C57.9357 273.56 58.7183 273.554 58.953 273.002L69.4939 248.205L48.2171 201Z" fill="black"/>
        <path id="Vector_2" d="M115.891 201C115.891 201 81.8386 278.986 77.2777 286.178C71.9764 294.539 68.4631 297.73 61.9618 298.753C61.9015 298.762 61.8569 298.814 61.8569 298.876C61.8569 298.944 61.9128 299 61.9814 299H82.3281C91.1423 299 97.4986 291.64 101.021 285.14C105.024 277.752 138.499 201 138.499 201H115.891Z" fill="black"/>
        <path id="Vector_3" d="M204.876 263.545C204.829 263.648 204.682 263.648 204.635 263.545L187.744 226.581H178.253C178.253 226.581 195.662 265.805 197.401 268.735C199.101 271.599 201.157 273.961 204.756 273.961C208.354 273.961 210.411 271.599 212.11 268.735C213.849 265.805 231.259 226.581 231.259 226.581H221.768L204.876 263.545Z" fill="black"/>
        <path id="Vector_4" d="M256.392 266.758C247.213 266.758 241.201 260.78 241.201 250C241.201 239.22 247.213 233.242 256.392 233.242C265.538 233.242 271.581 239.22 271.581 250C271.581 260.78 265.538 266.758 256.392 266.758ZM256.392 225.5C242.019 225.5 232.774 234.81 232.774 250C232.774 265.19 242.019 274.5 256.392 274.5C270.732 274.5 280.01 265.19 280.01 250C280.01 234.81 270.732 225.5 256.392 225.5Z" fill="black"/>
        <path id="Vector_5" d="M328.567 226.578V273.422H318.839L296.161 239.175V273.422H287.864V226.578H297.625L320.302 261.054V226.578H328.567Z" fill="black"/>
        <path id="Vector_6" d="M350.804 254.214L358.976 235.082C359.022 234.975 359.174 234.975 359.219 235.082L367.391 254.214H350.804ZM359.098 226.042C355.68 226.042 353.592 228.635 352.215 231.228C350.804 233.884 333.931 273.422 333.931 273.422H342.601L347.446 262.079H370.75L375.595 273.422H384.264C384.264 273.422 367.391 233.884 365.98 231.228C364.603 228.635 362.514 226.042 359.098 226.042Z" fill="black"/>
        <path id="Vector_7" d="M407.718 255.357H422.559C422.49 262.636 415.695 266.758 408.494 266.758C399.462 266.758 393.548 260.779 393.548 250C393.548 238.361 399.023 233.174 409 233.174C415.246 233.174 420.439 235.728 421.533 241.614H430.138C428.629 231.308 419.138 225.5 408.494 225.5C394.351 225.5 385.256 234.81 385.256 250C385.256 265.19 394.351 274.318 408.494 274.318C414.457 274.318 420.47 271.121 422.588 267.744L422.561 273.422H430.499V258.969V248.189H407.718V255.357Z" fill="black"/>
        <path id="Vector_8" d="M473.169 234.418V226.578H439.49V273.422H473.169V265.582H447.787V253.267H471.19V245.426H447.787V234.418H473.169Z" fill="black"/>
    </g>
</svg>
