<svg viewBox="0 0 500 500" fill="none" xmlns="http://www.w3.org/2000/svg">
<style>
	path, rect {
		fill: #1bbc9b;
	}
	g.sprite {
		display: none;
	}
	g.sprite:target {
		display: inline;
        transform-origin: center center;
	}
</style>
<filter id="blur"><feGaussianBlur in="SourceGraphic" stdDeviation="0" /></filter>
<g class="sprite" id="lusha" filter="url(#blur)">
<path d="M58.9316 279.533C43.4647 279.533 30.9263 267.206 30.9263 252C30.9263 236.794 43.4647 224.467 58.9316 224.467C74.3985 224.467 86.9369 236.794 86.9369 252C86.9369 267.206 74.3985 279.533 58.9316 279.533ZM58.9316 271.133C69.6798 271.133 78.3929 262.567 78.3929 252C78.3929 241.433 69.6798 232.867 58.9316 232.867C48.1834 232.867 39.4703 241.433 39.4703 252C39.4703 262.567 48.1834 271.133 58.9316 271.133Z" fill="black"/>
<path d="M140.574 279.533C125.107 279.533 112.569 267.206 112.569 252C112.569 236.794 125.107 224.467 140.574 224.467C156.041 224.467 168.579 236.794 168.579 252C168.579 267.206 156.041 279.533 140.574 279.533ZM140.574 271.133C151.322 271.133 160.035 262.567 160.035 252C160.035 241.433 151.322 232.867 140.574 232.867C129.826 232.867 121.113 241.433 121.113 252C121.113 262.567 129.826 271.133 140.574 271.133Z" fill="black"/>
<path d="M118.743 245.61C112.43 241.842 106.139 239.918 99.9095 239.918C93.6367 239.918 87.5189 241.87 81.6287 245.696C79.6601 246.974 79.1185 249.58 80.419 251.515C81.7195 253.45 84.3696 253.983 86.3382 252.704C90.8813 249.754 95.3809 248.318 99.9095 248.318C104.482 248.318 109.268 249.782 114.309 252.79C116.326 253.994 118.953 253.362 120.178 251.38C121.402 249.397 120.76 246.814 118.743 245.61Z" fill="black"/>
<path fill-rule="evenodd" clip-rule="evenodd" d="M241.505 269.448H214.674V204.845C214.674 203.876 214.037 203.23 213.083 203.23H206.402C205.447 203.23 204.811 203.876 204.811 204.845V276.985C204.811 277.954 205.447 278.6 206.402 278.6H241.505C242.459 278.6 243.095 277.954 243.095 276.985V271.063C243.095 270.094 242.459 269.448 241.505 269.448ZM298.666 225.841H292.303C291.349 225.841 290.713 226.487 290.713 227.456V259.004C290.713 262.45 285.728 271.279 276.396 271.279C269.396 271.279 264.624 266.649 264.624 257.389V227.456C264.624 226.487 263.988 225.841 263.033 225.841H256.67C255.716 225.841 255.079 226.487 255.079 227.456V258.466C255.079 272.571 262.609 280 274.381 280C281.698 280 287.107 276.016 290.713 270.633L291.137 276.985C291.243 277.954 291.773 278.6 292.727 278.6H298.666C299.621 278.6 300.257 277.954 300.257 276.985V227.456C300.257 226.487 299.621 225.841 298.666 225.841ZM322.316 239.515C322.316 234.563 326.876 232.732 330.588 232.732C335.148 232.732 338.224 234.563 342.36 237.9C343.208 238.654 344.056 238.869 344.693 238.008L347.132 234.886C347.662 234.132 347.874 233.378 347.238 232.624C342.89 227.456 336.103 224.657 330.27 224.657C320.937 224.657 313.195 230.579 313.195 239.515C313.195 257.174 340.769 252.867 340.769 264.388C340.769 268.91 336.739 271.279 331.33 271.279C325.391 271.279 320.301 267.725 317.225 265.141C316.271 264.388 315.635 264.172 314.892 265.034L312.135 268.802C311.605 269.448 311.605 270.094 312.241 270.848C315.953 275.262 322.846 279.677 331.648 279.677C340.769 279.677 350.101 273.863 350.101 264.495C350.101 245.653 322.316 250.498 322.316 239.515ZM388.28 224.657C380.432 224.657 374.705 229.071 370.993 234.67V201.615C370.993 200.646 370.357 200 369.403 200H363.04C362.085 200 361.449 200.646 361.449 201.615V276.985C361.449 277.954 362.085 278.6 363.04 278.6H369.403C370.357 278.6 370.993 277.954 370.993 276.985V245.33C370.993 243.069 376.084 233.378 385.735 233.378C392.522 233.378 397.082 237.9 397.082 247.052V276.985C397.082 277.954 397.718 278.6 398.673 278.6H405.036C405.99 278.6 406.627 277.954 406.627 276.985V245.976C406.627 231.871 399.097 224.657 388.28 224.657ZM469.409 225.841C470.364 225.841 471 226.487 471 227.456V276.985C471 277.954 470.364 278.6 469.409 278.6H463.789C462.834 278.6 462.304 277.954 462.198 276.985L461.667 270.633C457.744 275.908 451.805 279.354 443.957 279.354C429.216 279.354 418.611 267.187 418.611 252.328C418.611 236.931 429.216 224.764 443.957 224.764C451.805 224.764 457.85 228.425 461.774 234.024L462.198 227.456C462.304 226.487 462.834 225.841 463.789 225.841H469.409ZM444.911 270.525C454.774 270.525 461.88 262.557 461.88 252.221C461.88 241.992 454.774 233.594 444.911 233.594C435.049 233.594 427.731 241.454 427.731 252.221C427.731 262.557 435.049 270.525 444.911 270.525Z" fill="black"/>
</g>

<g class="sprite" id="codefresh" filter="url(#blur)">
<path id="Vector" d="M81.5116 234.793C85.2665 239.177 87.9761 244.357 89.4355 249.942C90.8949 255.527 91.0661 261.37 89.9361 267.031C101.879 262.268 106.512 254.281 107.922 246.294C107.922 246.294 111.992 231.159 118.321 224.868C105.816 226.831 104.552 221.924 81.5116 234.805" fill="black"/>
<path id="Vector_2" d="M62.3803 250.263C59.8803 242.54 55.5693 235.528 49.8072 229.812C49.8072 229.812 67.1965 234.383 77.2077 266.838C67.7616 263.988 63.731 254.666 62.3616 250.263H62.3803ZM83.8964 271.502C84.1759 269.95 88.784 254.25 79.6547 241.5C64.3676 224.558 41.3268 222.179 41.3268 222.179C45.8232 230.874 45.966 238.991 50.8785 255.542C56.8312 272.676 78.7945 273.831 80.4216 273.862C81.8966 276.191 85.2782 279.328 93.0196 280.949L93.8766 276.868C87.1973 275.471 84.7534 272.9 83.915 271.484" fill="black"/>
<path id="Vector_3" d="M43.7924 217.192C34.0761 221.769 30.1791 232.942 30.1791 250.021C30.1791 266.789 34.0699 278.03 43.7924 282.936L42.7024 287.128C27.7694 281.893 21 270.254 21 250.089C21 229.768 27.7694 218.124 42.7024 213L43.7924 217.192Z" fill="black"/>
<path id="Vector_4" d="M115.747 213C130.692 218.117 137.446 229.768 137.446 250.083C137.446 270.267 130.677 281.893 115.744 287.085L114.579 282.899C124.308 278.011 128.192 266.751 128.192 249.983C128.192 232.905 124.302 221.744 114.579 217.167L115.747 213Z" fill="black"/>
<path id="Vector_5" d="M181.963 267.987C177.458 269.717 172.658 270.546 167.834 270.428C155.95 270.428 150.24 265.28 152.078 252.275C153.773 240.009 158.462 234.997 170.896 234.997C175.78 234.917 180.638 235.744 185.22 237.438L183.531 244.953L172.461 244.884C167.433 244.884 165.735 246.58 164.918 252.672C164.033 259.38 165.194 260.597 170.082 260.597C173.756 260.619 177.429 260.438 181.084 260.057L181.963 267.987Z" fill="black"/>
<path id="Vector_6" d="M201.802 253.287C200.852 260.199 201.46 261.82 205.882 261.82C210.161 261.82 211.524 259.995 212.608 252.337C213.692 245.294 212.95 243.642 208.801 243.642C204.32 243.642 202.96 245.332 201.802 253.269V253.287ZM225.367 253.293C223.504 265.963 218.374 270.428 205.441 270.428C192.508 270.428 187.058 265.553 188.956 252.343C190.732 239.543 195.886 234.997 209.003 234.997C221.973 234.997 227.274 240.015 225.374 253.293" fill="black"/>
<path id="Vector_7" d="M251.79 242.91C246.626 242.91 245.405 243.99 244.384 251.784C243.57 257.883 243.434 260.317 246.489 260.119C249.352 259.841 252.035 258.599 254.1 256.597L255.929 242.934L251.79 242.91ZM264.624 269.614H254.911L254.777 263.926C251.334 267.677 246.607 269.998 241.533 270.428C233.655 270.428 230.125 264.87 231.817 252.002C233.68 237.91 239.223 234.997 246.489 234.997C250.134 234.996 253.772 235.325 257.357 235.979C257.322 233.665 257.482 231.353 257.836 229.066L258.988 222.235H271.337L264.624 269.614Z" fill="black"/>
<path id="Vector_8" d="M293.561 249.561C296.62 249.288 298.244 248.816 298.53 245.903C298.735 243.667 297.85 243.257 294.449 243.326C290.301 243.394 288.944 244.611 287.86 250.101L293.561 249.561ZM307.081 267.72C302.148 269.642 296.882 270.563 291.59 270.428C277.191 270.428 273.269 264.131 274.539 252.343C276.091 238.326 282.491 235.004 294.645 235.004C307.96 235.004 311.46 239.407 310.401 247.114C309.448 253.418 305.169 255.219 296.247 255.92L287.075 256.597C287.217 260.193 288.978 260.87 292.785 260.87C295.766 260.87 302.126 260.529 306.228 260.057L307.081 267.72Z" fill="black"/>
<path id="Vector_9" d="M336.966 226.421C332.818 226.421 331.125 227.371 330.514 231.7L329.768 236.6H340.016L339.329 241.649H329.082L324.598 273.422C324.555 274.776 324.237 276.108 323.665 277.336C323.093 278.565 322.278 279.665 321.269 280.57C320.26 281.474 319.078 282.165 317.794 282.601C316.511 283.037 315.153 283.207 313.801 283.104C311.055 283.085 308.312 282.902 305.588 282.557L306.609 277.676H311.702C315.782 277.676 317.475 276.725 318.093 272.397L322.44 241.655H316.54L317.161 236.91L323.207 236.575L324.024 230.675C324.064 229.32 324.381 227.987 324.956 226.759C325.53 225.531 326.35 224.433 327.364 223.534C328.379 222.634 329.567 221.952 330.855 221.529C332.143 221.106 333.504 220.951 334.855 221.074C338.098 221.034 341.341 221.191 344.565 221.546L343.481 226.452L336.966 226.421Z" fill="black"/>
<path id="Vector_10" d="M367.941 241.841H366.078C362.351 241.841 358.743 244.326 353.002 248.549L350.08 269.615H343.487L348.17 236.556H353.2L352.859 244.145C358.138 238.73 363.314 235.674 367.804 235.674H369.571L367.941 241.841Z" fill="black"/>
<path id="Vector_11" d="M390.833 251.051C394.91 250.784 396.674 249.635 397.214 245.835C397.835 241.295 395.522 241.177 390.221 241.177C383.504 241.177 381.191 243.003 379.766 252.082L390.833 251.051ZM400.341 268.534C395.916 269.885 391.304 270.527 386.678 270.434C375.188 270.434 371.26 264.534 372.884 252.213C374.654 239.339 379.2 235.681 391.205 235.681C402.074 235.681 404.725 239.748 403.772 246.387C402.688 252.958 398.884 255.33 390.802 255.939L379.312 256.958C379.244 263.597 382.368 264.944 387.662 264.944C391.336 264.944 396.087 264.541 399.894 264.131L400.341 268.534Z" fill="black"/>
<path id="Vector_12" d="M418.537 253.219C413.786 250.983 411.545 248.412 412.153 243.593C412.901 237.295 417.454 235.519 426.148 235.668C430.899 235.748 435.639 236.134 440.339 236.823L439.523 241.481C435.315 241.351 431.371 241.208 426.347 241.14C420.91 241.14 418.873 241.276 418.531 244.052C418.196 246.536 419.773 247.238 422.478 248.455L431.446 252.523C436.604 254.896 438.715 256.995 438.029 262.075C437.014 269.596 431.645 270.341 422.335 270.341C418.039 270.35 413.749 270.033 409.501 269.391L410.25 264.516C413.308 264.783 417.584 264.857 420.643 264.857C428.999 264.857 431.173 264.18 431.576 261.466C431.983 259.032 430.334 258.622 427.431 257.268L418.537 253.219Z" fill="black"/>
<path id="Vector_13" d="M458.216 235.202C457.831 237.942 457.287 240.656 456.586 243.332C462.346 238.252 467.159 235.668 471.923 235.668C473.123 235.513 474.342 235.66 475.471 236.096C476.6 236.532 477.601 237.244 478.385 238.166C479.168 239.088 479.709 240.191 479.957 241.376C480.206 242.56 480.154 243.787 479.807 244.947L476.276 269.602H469.755L472.947 246.574C473.491 242.438 472.742 241.22 469.892 241.22C465.811 241.22 461.877 243.996 456.191 248.468L453.269 269.583H446.665L453.387 222.167H459.908L458.216 235.202Z" fill="black"/>
</g>
<g class="sprite" id="ironsource" filter="url(#blur)">
<path id="ironSource_2" fill-rule="evenodd" clip-rule="evenodd" d="M457.884 246.358C456.952 247.379 456.321 248.767 455.984 250.514L467.109 250.528C466.858 248.738 466.259 247.339 465.313 246.34C464.858 245.85 464.305 245.462 463.689 245.202C463.074 244.943 462.411 244.817 461.744 244.833C460.099 244.833 458.812 245.34 457.884 246.361V246.358ZM454.691 269.448C452.623 268.662 450.733 267.469 449.132 265.939C447.571 264.43 446.345 262.607 445.538 260.589C444.68 258.433 444.254 256.128 444.283 253.807C444.283 251.391 444.713 249.155 445.555 247.095C446.368 245.084 447.574 243.257 449.103 241.723C450.623 240.206 452.436 239.019 454.544 238.171C456.76 237.298 459.123 236.866 461.503 236.898C464.03 236.898 466.274 237.29 468.234 238.063C470.126 238.796 471.87 239.868 473.38 241.227C475.388 243.064 476.889 245.392 477.735 247.983C478.656 250.69 479.075 253.628 478.989 256.792L455.974 256.763C456.307 258.636 456.991 260.096 458.024 261.139C459.052 262.181 460.475 262.706 462.288 262.71C464.392 262.71 465.894 261.919 466.779 260.337L478.348 260.355C477.968 261.894 477.243 263.326 476.226 264.54C475.151 265.87 473.807 267.035 472.205 268.035C470.728 268.988 469.159 269.674 467.492 270.084C465.66 270.52 463.781 270.729 461.898 270.706C459.242 270.703 456.841 270.282 454.691 269.448ZM419.383 269.491C417.305 268.693 415.405 267.49 413.792 265.953C412.231 264.444 411.006 262.621 410.197 260.603C409.343 258.467 408.917 256.184 408.943 253.883C408.947 251.47 409.373 249.23 410.215 247.17C411.034 245.148 412.265 243.32 413.828 241.802C415.438 240.252 417.343 239.042 419.429 238.246C421.598 237.394 424.013 236.97 426.669 236.973C428.781 236.952 430.883 237.273 432.894 237.922C434.768 238.548 436.392 239.425 437.757 240.551C439.126 241.676 440.23 243.024 441.072 244.589C441.911 246.149 442.437 247.871 442.645 249.744L431.141 249.73C430.804 248.27 430.281 247.156 429.564 246.386C428.848 245.61 427.837 245.225 426.529 245.225C424.676 245.225 423.303 245.987 422.418 247.53C421.529 249.072 421.085 251.197 421.081 253.901C421.078 256.565 421.537 258.661 422.461 260.186C423.389 261.707 424.78 262.469 426.633 262.473C428.106 262.473 429.213 262.005 429.955 261.07C430.693 260.132 431.148 258.748 431.317 256.914L442.825 256.932C442.825 258.888 442.43 260.707 441.645 262.397C440.864 264.087 439.768 265.55 438.355 266.802C436.851 268.1 435.111 269.094 433.231 269.728C431.103 270.454 428.869 270.81 426.622 270.782C423.966 270.778 421.554 270.35 419.383 269.491ZM395.998 242.683C397.31 240.684 398.754 239.267 400.335 238.44C401.919 237.606 403.739 237.193 405.804 237.196C406.689 237.196 407.345 237.304 407.767 237.513L407.753 247.573H407.499C403.958 246.983 401.22 247.447 399.277 248.968C397.339 250.485 396.364 253.056 396.36 256.68L396.342 269.739L384.39 269.725L384.437 237.854L395.815 237.868L395.812 242.683H395.998ZM368.722 265.576H368.532C367.41 267.152 365.948 268.454 364.256 269.387C362.636 270.257 360.708 270.692 358.472 270.688C356.537 270.688 354.849 270.379 353.415 269.775C352.048 269.215 350.827 268.348 349.846 267.24C348.873 266.109 348.143 264.788 347.702 263.361C347.204 261.743 346.961 260.056 346.982 258.363L347.011 237.804L358.959 237.818L358.938 255.566C358.931 258.942 360.36 260.632 363.228 260.635C364.787 260.635 365.998 260.136 366.865 259.14C367.729 258.14 368.166 256.767 368.166 255.016L368.191 237.829L380.14 237.847L380.097 269.718L368.714 269.703L368.722 265.576ZM330.733 260.305C331.665 258.665 332.131 256.49 332.131 253.779C332.138 251.071 331.675 248.892 330.751 247.246C329.826 245.599 328.436 244.775 326.583 244.772C324.73 244.772 323.357 245.592 322.469 247.235C321.583 248.878 321.135 251.053 321.132 253.764C321.128 256.472 321.569 258.651 322.451 260.297C323.336 261.94 324.705 262.767 326.558 262.771C328.411 262.771 329.805 261.951 330.733 260.305ZM319.372 269.351C317.303 268.558 315.413 267.354 313.817 265.813C312.272 264.298 311.057 262.477 310.251 260.466C309.398 258.331 308.971 256.047 308.997 253.746C308.997 251.33 309.423 249.09 310.269 247.03C311.085 245.014 312.304 243.187 313.849 241.662C315.391 240.144 317.243 238.958 319.415 238.106C321.587 237.257 324.02 236.833 326.719 236.837C329.418 236.837 331.851 237.268 334.019 238.127C336.191 238.987 338.033 240.177 339.546 241.698C341.062 243.219 342.23 245.013 343.047 247.077C343.868 249.14 344.276 251.38 344.273 253.797C344.292 256.095 343.87 258.375 343.029 260.513C342.242 262.518 341.046 264.336 339.517 265.849C337.929 267.391 336.044 268.59 333.976 269.372C331.805 270.225 329.371 270.649 326.672 270.645C323.974 270.642 321.54 270.21 319.372 269.351ZM279.294 269.703C276.953 269.147 274.729 268.182 272.721 266.852C270.895 265.627 269.381 263.987 268.303 262.066C267.227 260.146 266.675 257.896 266.636 255.314L280.169 255.332C280.373 257.126 281.143 258.449 282.469 259.305C283.795 260.161 285.552 260.589 287.745 260.592C288.379 260.592 289.042 260.531 289.737 260.409C290.387 260.299 291.016 260.088 291.601 259.783C292.153 259.496 292.605 259.107 292.963 258.629C293.321 258.154 293.5 257.579 293.5 256.914C293.522 256.301 293.322 255.701 292.938 255.224C292.485 254.711 291.924 254.304 291.296 254.034C290.58 253.7 289.684 253.387 288.609 253.096C287.533 252.801 286.304 252.484 284.914 252.15C283.014 251.69 281.079 251.143 279.101 250.521C277.201 249.93 275.385 249.098 273.696 248.044C272.101 247.047 270.744 245.712 269.718 244.132C268.69 242.546 268.177 240.569 268.177 238.192C268.181 235.65 268.679 233.486 269.675 231.695C270.668 229.908 272.005 228.452 273.693 227.326C275.51 226.15 277.526 225.316 279.642 224.867C282.007 224.341 284.423 224.083 286.845 224.098C289.164 224.098 291.411 224.349 293.583 224.853C295.636 225.308 297.592 226.126 299.36 227.269C301.044 228.376 302.392 229.793 303.403 231.522C304.41 233.255 304.936 235.33 304.972 237.743L291.888 237.725C291.714 236.578 291.117 235.54 290.214 234.816C289.311 234.086 287.953 233.723 286.139 233.719C284.663 233.719 283.473 234.007 282.566 234.586C281.659 235.168 281.204 235.916 281.204 236.837C281.204 237.502 281.434 238.041 281.896 238.462C282.362 238.879 283.043 239.246 283.95 239.558C284.856 239.871 285.971 240.166 287.3 240.439C288.626 240.709 290.132 241.058 291.816 241.475C293.716 241.935 295.568 242.489 297.378 243.14C299.192 243.787 300.811 244.653 302.245 245.739C303.679 246.825 304.825 248.17 305.685 249.773C306.546 251.38 306.976 253.369 306.972 255.742C306.972 258.201 306.449 260.358 305.413 262.21C304.377 264.062 302.976 265.612 301.202 266.859C299.432 268.107 297.367 269.052 295.002 269.692C292.547 270.348 290.016 270.671 287.476 270.652C284.72 270.671 281.973 270.352 279.294 269.703ZM242.696 242.032C244.004 240.285 245.491 238.954 247.158 238.041C248.824 237.124 250.795 236.668 253.071 236.675C256.823 236.675 259.648 237.807 261.54 240.058C263.432 242.313 264.378 245.272 264.371 248.939L264.342 269.559L252.394 269.541L252.419 251.794C252.419 250.126 252.064 248.795 251.347 247.792C250.631 246.793 249.498 246.289 247.936 246.289C246.42 246.289 245.23 246.857 244.363 248.001C243.499 249.148 243.065 250.593 243.062 252.344L243.036 269.531L231.088 269.509L231.135 237.642L242.513 237.656L242.506 242.032H242.696ZM214.602 260.146C215.534 258.503 216 256.328 216 253.62C216.007 250.909 215.548 248.731 214.62 247.087C213.696 245.441 212.305 244.614 210.452 244.61C208.599 244.61 207.227 245.43 206.338 247.073C205.453 248.72 205.008 250.895 205.005 253.602C204.998 256.31 205.438 258.489 206.32 260.136C207.205 261.782 208.571 262.606 210.427 262.609C212.28 262.609 213.674 261.793 214.602 260.146ZM203.242 269.193C201.172 268.398 199.283 267.193 197.687 265.651C196.14 264.137 194.926 262.316 194.121 260.305C193.267 258.17 192.841 255.888 192.866 253.588C192.866 251.172 193.293 248.932 194.139 246.872C194.954 244.854 196.172 243.026 197.719 241.5C199.26 239.983 201.113 238.796 203.285 237.948C205.456 237.095 207.89 236.671 210.588 236.675C213.287 236.678 215.721 237.11 217.889 237.969C220.057 238.825 221.903 240.015 223.419 241.536C224.939 243.07 226.129 244.901 226.916 246.915C227.75 249.055 228.166 251.337 228.142 253.635C228.161 255.933 227.739 258.213 226.898 260.351C226.112 262.358 224.916 264.176 223.386 265.691C221.863 267.186 220.018 268.359 217.846 269.214C215.674 270.063 213.24 270.487 210.542 270.483C207.843 270.48 205.41 270.052 203.242 269.189V269.193ZM179.918 242.384C181.23 240.385 182.678 238.969 184.254 238.142C185.838 237.308 187.659 236.894 189.727 236.898C190.612 236.898 191.268 237.006 191.687 237.214L191.673 247.274H191.422C187.881 246.685 185.14 247.149 183.197 248.666C181.258 250.183 180.284 252.758 180.28 256.382L180.262 269.441L168.31 269.423L168.357 237.556L179.739 237.57L179.732 242.384H179.918ZM164.06 237.548L164.017 269.419L152.064 269.401L152.111 237.534L164.06 237.548ZM164.077 224.741L164.063 233.676L152.118 233.658L152.129 224.723L164.077 224.741ZM87.7203 278.466C74.6608 278.448 68.4105 271.479 68.4249 262.692V260.031L83.0613 260.053V261.211C83.0577 264.08 84.545 266.05 87.387 266.054C90.0103 266.061 91.3005 264.849 91.3041 262.803C91.3113 256.997 68.9266 257.942 68.9481 241.673C68.9589 232.903 74.5246 225.263 88.3689 225.281C100.805 225.302 106.976 232.281 106.962 241.047V243.905L92.3291 243.884V242.248C92.3326 239.889 91.1177 237.531 88.351 237.527C86.1469 237.527 84.8747 238.749 84.8711 240.713C84.8604 247.134 107.234 245.52 107.213 261.775C107.198 270.552 101.371 278.483 87.7203 278.466ZM65.9198 235.966L51.5128 235.945L51.5307 224.533L65.9377 224.554L65.9198 235.966ZM65.9198 248.666C65.9162 253.462 64.2999 256.163 60.7555 257.14C64.4648 258.625 65.9055 261.275 65.8947 266.931L65.8875 275.233L51.3838 275.114L51.4017 264.267C51.4017 262.102 49.0113 261.84 47.0401 261.167L47.0509 253.398C49.022 252.75 51.416 252.132 51.4232 250.417L51.4339 238.947L65.9377 238.969L65.9234 248.666H65.9198ZM77.535 193C46.309 193 21 218.294 21 249.5C21 280.706 46.309 306 77.5314 306C108.754 306 134.063 280.706 134.063 249.5C134.063 218.294 108.754 193 77.5314 193H77.535Z" fill="black"/>
</g>
<g class="sprite" id="bitmain" filter="url(#blur)">
<path id="Bitmain" d="M27 249.735V222.469L50.4398 222.473C75.0774 222.477 78.3569 222.689 82.4974 224.55C87.0987 226.617 88.5786 229.91 88.3229 237.511C88.1273 243.323 87.1936 245.628 84.4338 247.111C83.4731 247.628 82.692 248.156 82.6981 248.285C82.7035 248.414 83.5572 248.905 84.5937 249.376C85.6303 249.848 86.9633 250.904 87.556 251.723C88.5498 253.097 88.6451 253.798 88.78 260.723C88.9195 267.874 88.8721 268.334 87.793 270.345C86.4765 272.799 83.9974 274.595 80.3048 275.771C77.9672 276.516 74.9761 276.626 52.3436 276.803L27 277V249.735ZM75.2038 268.298C78.1415 267.072 78.6219 266.068 78.798 260.789C78.941 256.5 78.8553 255.894 77.9435 254.751C77.3861 254.052 76.1366 253.263 75.1669 252.997C74.1007 252.705 66.2077 252.513 55.1992 252.512L36.9946 252.51V260.724V268.938H55.3335C69.7418 268.938 74.0005 268.801 75.2038 268.299V268.298ZM76.981 243.323C78.2326 242.088 78.7728 236.799 77.9519 233.816C77.0273 230.457 76.9745 230.449 55.5715 230.449H36.9946V237.504V244.56L56.4952 244.428C75.4926 244.299 76.0212 244.27 76.981 243.323ZM101.246 249.458V222H106.481H111.717V249.458V276.916H106.481H101.246V249.458ZM149.791 253.683V230.449H135.513H121.235V226.459V222.469H154.789H188.342V226.459V230.449H174.302H160.262V253.683V276.916H155.027H149.791V253.683ZM197.385 249.693V222.469H202.104H206.822L223.087 244.532C232.033 256.666 239.53 266.486 239.747 266.353C239.965 266.22 247.35 256.292 256.159 244.291L272.174 222.469H276.662H281.15V249.693V276.916H276.396H271.642L271.517 257.823L271.393 238.73L257.353 257.836L243.313 276.942L239.064 276.812L234.815 276.682L220.978 257.972L207.142 239.263L207.017 258.09L206.893 276.916H202.139H197.385L197.385 249.693ZM288.368 276.494C288.455 276.262 296.665 264.018 306.612 249.284L324.698 222.495L328.505 222.485L332.313 222.476L338.312 231.508C341.612 236.476 349.797 248.725 356.502 258.728L368.693 276.916H362.859H357.026L343.004 255.301C335.291 243.412 328.803 233.643 328.585 233.592C328.366 233.541 321.736 243.268 313.851 255.208L299.514 276.916H293.862C290.718 276.916 288.28 276.729 288.368 276.494V276.494ZM375.861 249.458V222H381.334H386.807V249.458V276.916H381.334H375.861V249.458ZM399.182 249.693V222.469L403.584 222.481L407.987 222.492L435.073 242.429C449.971 253.394 462.339 262.366 462.559 262.366C462.778 262.366 462.957 253.389 462.957 242.418V222.469H467.479H472V249.735V277L469.263 276.831L466.527 276.663L437.424 255.668C421.417 244.121 408.192 234.673 408.034 234.673C407.877 234.673 407.749 244.178 407.749 255.795V276.916H403.465H399.182V249.693Z" fill="black"/>
</g>
<g class="sprite" id="initech" filter="url(#blur)">
<path id="Vector_14" d="M198.561 230.117V269.38H192.597C192.1 269.38 191.603 268.883 191.603 268.386V229.123H197.815C198.064 229.123 198.561 229.62 198.561 230.117Z" fill="black"/>
<path id="Vector_15" d="M242.794 241.051V269.38H236.581C236.084 269.38 235.587 268.883 235.587 268.386V240.554C235.587 238.069 233.599 235.833 230.866 235.833H216.453C215.956 235.833 215.459 236.33 215.459 236.827V268.634C215.459 269.131 214.962 269.628 214.465 269.628H208.749V234.342C208.749 231.36 210.986 229.123 213.968 229.123H231.114C237.575 229.123 242.794 234.342 242.794 241.051Z" fill="black"/>
<path id="Vector_16" d="M259.94 230.117V269.38H253.727C253.231 269.38 252.734 268.883 252.734 268.386V229.123H258.946C259.443 229.123 259.94 229.62 259.94 230.117Z" fill="black"/>
<path id="Vector_17" d="M290.008 263.664V269.38H281.808C275.347 269.38 270.128 264.161 270.128 257.7V209.74H276.092C276.589 209.74 277.086 210.237 277.086 210.734V230.863C277.583 229.869 278.329 229.372 279.323 229.372H287.772V235.087C287.772 235.584 287.275 235.833 286.778 235.833H276.838V257.949C276.838 260.682 278.826 262.67 281.559 262.67H288.766C289.511 262.67 290.008 263.167 290.008 263.664Z" fill="black"/>
<path id="Vector_18" d="M297.215 257.7V240.803C297.215 233.348 302.433 229.372 308.894 229.372H319.58C326.041 229.372 331.259 233.348 331.259 240.803V249.997C331.259 251.239 331.011 252.482 329.271 252.482H307.155C305.912 252.482 304.67 251.985 303.924 250.991V258.197C303.924 260.931 305.912 262.919 308.646 262.919H328.526C329.023 262.919 329.52 263.416 329.52 263.913V269.38H308.646C302.433 269.38 297.215 264.161 297.215 257.7ZM308.894 235.833C306.161 235.833 304.173 237.324 304.173 240.554V244.779C304.173 245.276 304.421 245.524 304.918 245.773H323.556C324.053 245.773 324.55 245.276 324.55 244.779V240.554C324.55 237.324 323.059 235.833 319.828 235.833H308.894Z" fill="black"/>
<path id="Vector_19" d="M347.412 240.803V257.949C347.412 260.682 349.4 262.67 352.133 262.67H366.298C366.795 262.67 367.292 263.167 367.292 263.664V269.38H352.133C345.672 269.38 340.454 264.161 340.454 257.7V241.051C340.454 234.59 345.672 229.372 352.133 229.372H367.292V235.087C367.292 235.584 366.795 235.833 366.298 235.833H352.133C349.648 235.833 347.412 238.069 347.412 240.803Z" fill="black"/>
<path id="Vector_20" d="M376.486 209.243H382.698C383.195 209.243 383.692 209.74 383.692 210.237V232.105C384.686 230.863 386.674 229.62 389.159 229.62H399.348C405.809 229.62 410.53 233.348 410.53 240.803V269.38H404.318C403.821 269.38 403.324 268.883 403.324 268.386V240.554C403.324 237.821 401.336 235.833 398.602 235.833H387.42C385.432 236.081 383.692 237.821 383.444 239.809V269.38H377.231C376.734 269.38 376.237 268.883 376.237 268.386V209.243H376.486Z" fill="black"/>
<path id="Vector_21" d="M171.723 220.038H152.722V205.307C152.722 203.607 154.122 202.285 155.922 202.285H168.523C170.323 202.285 171.723 203.607 171.723 205.307V220.038Z" fill="black"/>
<path id="Vector_22" d="M105.519 296.715H92.9184C91.1182 296.715 89.7182 295.393 89.7182 293.693V278.962H108.719V293.693C108.719 295.393 107.319 296.715 105.519 296.715Z" fill="black"/>
<path id="Vector_23" d="M152.722 228.914V293.882C152.722 295.582 154.122 296.904 155.922 296.904H161.922H163.122C166.723 296.904 171.523 296.148 171.723 291.993V228.914H152.722Z" fill="black"/>
<path id="Vector_24" d="M105.519 202.285H99.5187H98.3187C94.7185 202.285 89.9182 203.041 89.7182 207.007V270.086H108.719V205.307C108.719 203.607 107.319 202.285 105.519 202.285Z" fill="black"/>
<path id="Vector_25" d="M170.123 293.126C168.923 292.56 168.323 291.616 163.322 283.495L114.32 206.251C112.719 203.796 109.919 202.285 106.719 202.285H105.519H99.5187H98.3187C94.7185 202.285 89.9182 203.041 89.7182 207.007C89.7182 207.007 89.9182 205.496 91.3183 205.874C92.1183 206.062 92.7183 207.007 98.1186 215.316L146.721 291.804C148.522 294.826 151.922 296.526 155.722 296.526H156.122H162.122H163.322C166.923 296.526 171.523 295.771 171.923 291.993C171.523 292.56 171.123 293.504 170.123 293.126Z" fill="black"/>
</g>
<g class="sprite" id="tikal" filter="url(#blur)">
<path id="Union" d="M353.351 223.147V276.057H393V269.184H363.592V223.147H353.351Z" fill="black"/>
<path id="Union_2" fill-rule="evenodd" clip-rule="evenodd" d="M275.4 276.057C281.876 253.111 287.315 241.411 302.836 224.293H312.259C327.78 241.411 333.22 253.111 339.695 276.057H330.827C329.503 271.309 328.25 267.11 326.914 263.258H293.83L296.047 256.717H324.415C320.682 247.904 315.862 240.526 307.548 231.403C293.954 246.32 289.701 256.57 284.269 276.057H275.4Z" fill="black"/>
<path id="Union_3" fill-rule="evenodd" clip-rule="evenodd" d="M197.739 276.057L197.739 223.147L207.98 223.147L207.98 242.683C222.827 240.612 230.659 236.065 243.961 225.167H256.649C254.415 229.239 243.653 236.605 232.155 242.391C244.985 252.076 251.411 260.33 260.35 276.057H249.965C244.22 263.447 237.773 256.557 223.95 246.179C217.939 248.688 212.235 250.439 207.98 250.718L207.98 276.057H197.739Z" fill="black"/>
<rect id="Rectangle" x="171.008" y="276.057" width="52.4921" height="10.2411" transform="rotate(-90 171.008 276.057)"/>
<path id="Union_4" fill-rule="evenodd" clip-rule="evenodd" d="M126 230.437L126 276.057H136.241L136.241 230.437H154.517V223.565H136.241V223.565L126 223.565V223.565H107V230.437H126Z" fill="black"/>
<path id="Vector 3" d="M175.356 217.919C168.15 208.773 147.643 214.316 141.823 183C168.905 183.819 175.455 192.19 175.356 217.919Z" fill="black"/>
</g>
<g class="sprite" id="appnext" filter="url(#blur)">
    <path id="Vector" d="M50.8686 262.489L50.9643 277.824C51.0003 282.041 54.4203 285.437 58.6157 285.42L73.8683 285.323L62.3684 273.904L50.8686 262.489ZM122.261 236.05L122.165 220.716C122.123 216.5 118.707 213.108 114.513 213.119L99.2608 213.211L110.761 224.63L122.261 236.05Z" fill="black"/>
    <path id="Vector_2" d="M114.967 285.06C119.162 285.024 122.539 281.586 122.522 277.368L122.427 262.034L99.7141 285.156L114.967 285.06Z" fill="black"/>
    <path id="Vector_3" d="M49.6848 244.102C46.7471 247.11 46.7786 251.939 49.7553 254.908L60.6054 265.685L60.4039 233.189L49.6848 244.102Z" fill="black"/>
    <path id="Vector_4" d="M70.569 275.57L81.4241 286.341C84.4139 289.299 89.2197 289.27 92.1735 286.276L102.893 275.362L86.7283 275.469L70.569 275.57ZM102.56 222.969L91.705 212.198C88.7109 209.244 83.9059 209.275 80.9506 212.269L70.2567 223.172L86.416 223.07L102.56 222.969Z" fill="black"/>
    <path id="Vector_5" d="M123.374 243.626L112.519 232.854L112.715 265.351L123.439 254.438C126.382 251.43 126.352 246.597 123.374 243.626Z" fill="black"/>
    <path id="Vector_6" d="M58.1674 213.479C53.9733 213.518 50.5976 216.955 50.6117 221.171L50.7023 236.506L73.415 213.383L58.1674 213.479Z" fill="black"/>
    <path id="Vector_7" d="M197.073 284.959L196.735 229.882L206.261 229.821L206.301 236.04L207.308 234.738C210.156 230.956 214.599 228.732 219.317 228.727C229.87 228.666 236.741 236.769 236.816 249.378C236.892 261.988 230.122 270.258 219.569 270.319C214.824 270.349 210.643 268.293 207.48 264.373L206.472 263.107L206.608 284.883L197.073 284.959ZM215.997 237.133C212.366 237.133 208.341 239.235 206.427 242.076L206.326 242.223L206.417 256.909L206.517 257.051C208.442 259.876 212.587 261.988 216.154 261.963C222.561 261.922 227.004 256.777 226.958 249.439C226.913 242.101 222.405 237.093 215.997 237.133ZM163.198 270.668C152.277 270.734 144.6 262.211 144.525 249.941C144.449 237.67 152.025 229.142 162.941 229.076C167.661 229.017 172.136 231.186 175.03 234.936L176.037 236.227V229.922L185.81 229.861L186.051 269.493L176.279 269.554L176.239 263.274L175.232 264.551C172.098 268.531 167.943 270.638 163.198 270.668ZM166.351 237.437C159.591 237.478 154.332 242.947 154.373 249.885C154.413 256.823 159.742 262.307 166.502 262.262C170.068 262.262 174.189 260.079 176.073 257.233L176.168 257.086L176.083 242.4L175.982 242.258C174.023 239.443 169.993 237.417 166.351 237.437ZM245.284 284.66L244.946 229.583L254.456 229.527L254.497 235.746L255.504 234.444C258.35 230.661 262.794 228.436 267.513 228.433C278.066 228.367 284.936 236.47 285.012 249.08C285.087 261.689 278.317 269.959 267.765 270.025C263.02 270.055 258.839 267.999 255.675 264.074L254.668 262.814L254.799 284.589L245.284 284.66ZM264.188 236.835C260.556 236.835 256.532 238.936 254.618 241.777L254.517 241.924L254.607 256.61L254.708 256.757C256.632 259.578 260.778 261.689 264.344 261.669C270.752 261.629 275.194 256.478 275.149 249.146C275.104 241.813 270.616 236.799 264.188 236.835ZM320.731 268.688L320.605 244.649C320.569 239.159 317.93 236.506 312.545 236.546C307.301 236.576 304.057 240.05 302.904 241.544L302.783 241.696L302.949 268.804L293.439 268.86L293.197 229.294L302.707 229.233L302.748 235.427L303.755 234.257C306.239 231.32 311.14 228.18 317.456 228.129C325.576 228.079 330.105 232.454 330.175 240.456L330.346 268.627L320.731 268.688ZM359.074 269.463C346.677 269.539 337.963 261.026 337.887 248.756C337.817 236.926 346.526 227.947 358.152 227.897C369.969 227.805 377.928 236.506 378.028 249.52V251.48L347.836 251.662L347.941 252.321C348.858 258.139 353.679 261.872 360.212 261.831C363.441 261.831 367.989 260.525 370.82 258.099L374.991 264.176C371.238 267.462 365.34 269.422 359.074 269.463ZM358.197 235.493C351.185 235.538 348.213 240.511 347.795 244.755L347.735 245.383L368.941 245.251L368.881 244.633C368.488 240.395 365.436 235.457 358.197 235.493Z" fill="black"/>
    <path id="Vector_8" d="M409.774 268.142L400.162 254.018L390.641 268.264L380.204 268.323L394.106 247.905L380.798 228.753L391.322 228.687L400.085 241.559L408.609 228.58L419.137 228.514L406.141 247.835L420.291 268.08L409.774 268.142Z" fill="black"/>
    <path id="Vector_9" d="M442.247 268.951C435.059 268.997 431.392 265.442 431.347 258.377L431.216 236.652L424.512 236.693L424.461 228.479L431.166 228.438L431.1 217.297L440.61 217.262L440.676 228.403L448.897 228.352L448.947 236.566L440.726 236.617L440.842 255.476C440.842 258.514 442.585 260.585 445.129 260.57C446.309 260.577 447.47 260.275 448.499 259.694L450.478 266.683C448.685 268.121 445.784 268.916 442.247 268.951Z" fill="black"/>
</g>
    <g class="sprite" id="vonage" filter="url(#blur)">
        <path id="Vector" d="M48.2171 201H26L57.6937 273.009C57.9357 273.56 58.7183 273.554 58.953 273.002L69.4939 248.205L48.2171 201Z" fill="black"/>
        <path id="Vector_2" d="M115.891 201C115.891 201 81.8386 278.986 77.2777 286.178C71.9764 294.539 68.4631 297.73 61.9618 298.753C61.9015 298.762 61.8569 298.814 61.8569 298.876C61.8569 298.944 61.9128 299 61.9814 299H82.3281C91.1423 299 97.4986 291.64 101.021 285.14C105.024 277.752 138.499 201 138.499 201H115.891Z" fill="black"/>
        <path id="Vector_3" d="M204.876 263.545C204.829 263.648 204.682 263.648 204.635 263.545L187.744 226.581H178.253C178.253 226.581 195.662 265.805 197.401 268.735C199.101 271.599 201.157 273.961 204.756 273.961C208.354 273.961 210.411 271.599 212.11 268.735C213.849 265.805 231.259 226.581 231.259 226.581H221.768L204.876 263.545Z" fill="black"/>
        <path id="Vector_4" d="M256.392 266.758C247.213 266.758 241.201 260.78 241.201 250C241.201 239.22 247.213 233.242 256.392 233.242C265.538 233.242 271.581 239.22 271.581 250C271.581 260.78 265.538 266.758 256.392 266.758ZM256.392 225.5C242.019 225.5 232.774 234.81 232.774 250C232.774 265.19 242.019 274.5 256.392 274.5C270.732 274.5 280.01 265.19 280.01 250C280.01 234.81 270.732 225.5 256.392 225.5Z" fill="black"/>
        <path id="Vector_5" d="M328.567 226.578V273.422H318.839L296.161 239.175V273.422H287.864V226.578H297.625L320.302 261.054V226.578H328.567Z" fill="black"/>
        <path id="Vector_6" d="M350.804 254.214L358.976 235.082C359.022 234.975 359.174 234.975 359.219 235.082L367.391 254.214H350.804ZM359.098 226.042C355.68 226.042 353.592 228.635 352.215 231.228C350.804 233.884 333.931 273.422 333.931 273.422H342.601L347.446 262.079H370.75L375.595 273.422H384.264C384.264 273.422 367.391 233.884 365.98 231.228C364.603 228.635 362.514 226.042 359.098 226.042Z" fill="black"/>
        <path id="Vector_7" d="M407.718 255.357H422.559C422.49 262.636 415.695 266.758 408.494 266.758C399.462 266.758 393.548 260.779 393.548 250C393.548 238.361 399.023 233.174 409 233.174C415.246 233.174 420.439 235.728 421.533 241.614H430.138C428.629 231.308 419.138 225.5 408.494 225.5C394.351 225.5 385.256 234.81 385.256 250C385.256 265.19 394.351 274.318 408.494 274.318C414.457 274.318 420.47 271.121 422.588 267.744L422.561 273.422H430.499V258.969V248.189H407.718V255.357Z" fill="black"/>
        <path id="Vector_8" d="M473.169 234.418V226.578H439.49V273.422H473.169V265.582H447.787V253.267H471.19V245.426H447.787V234.418H473.169Z" fill="black"/>
    </g>
    <g class="sprite" id="taboola">
            <path d="M58.4563 221.608H34V199.139H109.769V221.608H85.2714V287.448H58.4701L58.4563 221.608Z" fill="black"/>
            <path d="M134.598 258.6C131.549 260.004 128.341 261.03 125.046 261.654C119.652 262.862 116.825 264.194 116.804 268.498C116.804 271.462 119.949 274.433 124.356 274.461C129.874 274.461 134.163 271.191 134.577 264.541L134.598 258.6ZM157.778 273.177C157.778 277.98 157.958 283.401 160.627 287.483L135.908 287.337C135.276 285.39 135 283.344 135.095 281.298H134.846C129.674 287.178 122.197 288.857 114.362 288.816C102.127 288.739 92.0028 282.77 92.0718 269.345C92.189 249.138 115.694 250.013 128.067 247.75C131.377 247.146 134.681 246.181 134.708 242.12C134.708 237.81 130.708 236.179 126.791 236.151C119.321 236.116 117.825 239.92 117.694 242.627L95.1685 242.495C96.003 224.51 112.907 221.671 127.97 221.74C158.316 221.921 158.013 234.61 157.937 246.931L157.778 273.177Z" fill="black"/>
            <path d="M197.677 239.858C188.987 239.809 186.98 248.048 186.938 255.559C186.897 263.195 188.807 271.469 197.491 271.525C206.174 271.58 208.188 263.334 208.236 255.684C208.277 248.173 206.367 239.899 197.677 239.858ZM163.882 199H188.118L187.945 230.688H188.187C191.89 225.287 198.394 222.087 205.636 222.157C226.927 222.282 232.582 240.552 232.492 255.58C232.396 271.594 223.602 289.406 205.594 289.309C193.718 289.232 190.076 284.658 187.035 280.569H186.794L186.752 287.448H163.882V199Z" fill="black"/>
            <path d="M269.018 216.895C259.832 216.84 258.556 225.829 258.514 232.597C258.473 239.365 259.645 248.5 268.86 248.562C278.074 248.625 279.322 239.538 279.364 232.722C279.405 225.905 278.232 216.944 269.018 216.895ZM268.729 266.298C244.858 266.159 234.175 250.2 234.279 232.458C234.382 214.716 245.245 199.014 269.087 199.18C292.93 199.347 303.668 215.146 303.572 232.867C303.475 250.589 292.606 266.436 268.735 266.298" fill="black"/>
            <path d="M329.166 216.895C319.986 216.84 318.71 225.829 318.676 232.604C318.641 239.379 319.8 248.5 329.021 248.569C338.242 248.639 339.477 239.545 339.518 232.736C339.56 225.926 338.387 216.951 329.173 216.902L329.166 216.895ZM328.883 266.312C305.02 266.166 294.337 250.207 294.44 232.465C294.544 214.722 305.399 199.021 329.269 199.146C353.139 199.271 363.823 215.111 363.754 232.854C363.685 250.596 352.781 266.423 328.911 266.291" fill="black"/>
            <path d="M368.857 199.18H392.583V287.476H368.857V199.18Z" fill="black"/>
            <path d="M439.288 258.384C436.235 259.775 433.025 260.788 429.729 261.404C424.322 262.612 421.508 263.951 421.453 268.255C421.453 271.212 424.598 274.183 429.005 274.211C434.523 274.211 438.819 270.941 439.226 264.292L439.288 258.384ZM462.614 272.961C462.614 277.765 462.324 283.374 465 287.483H440.64C439.993 285.417 439.699 283.255 439.771 281.09H439.523C434.35 286.969 426.881 288.656 419.039 288.608C406.79 288.531 396.673 282.562 396.748 269.13C396.866 248.923 420.357 249.805 432.736 247.542C436.047 246.938 439.357 245.973 439.378 241.905C439.378 237.595 435.378 235.963 431.46 235.943C423.991 235.901 422.495 239.712 422.37 242.419L399.831 242.294C400.673 224.309 417.584 221.47 432.64 221.539C462.986 221.713 462.683 234.402 462.607 246.723L462.614 272.961Z" fill="black"/>
            <path d="M243.369 266.305C260.611 274.044 278.432 277.48 297.895 277.591C318.338 277.709 333.835 273.829 353.464 266.305L353.346 287.615C335.78 296.382 316.738 301.109 297.758 300.998C277.067 300.873 262.17 296.597 243.272 287.615L243.369 266.305Z" fill="black"/>
    </g>
    <g class="sprite" id="cloudinary">
            <path d="M168.372 233.916C170.779 233.921 173.152 234.478 175.311 235.544C177.469 236.611 179.353 238.158 180.819 240.067C180.871 240.136 180.937 240.194 181.012 240.237C181.087 240.279 181.17 240.306 181.256 240.316C181.342 240.325 181.429 240.317 181.512 240.292C181.595 240.266 181.671 240.224 181.737 240.168L186.979 235.991C187.046 235.937 187.102 235.871 187.143 235.796C187.185 235.721 187.211 235.638 187.22 235.553C187.229 235.468 187.222 235.381 187.198 235.299C187.174 235.217 187.134 235.14 187.08 235.073C184.849 232.178 181.983 229.834 178.702 228.221C175.422 226.609 171.815 225.772 168.16 225.774C154.473 225.774 143.375 237.57 143.375 252.074C143.375 266.578 154.51 278.374 168.16 278.374C171.815 278.386 175.423 277.554 178.703 275.943C181.983 274.331 184.847 271.984 187.071 269.084C187.126 269.018 187.168 268.941 187.193 268.858C187.217 268.775 187.225 268.687 187.215 268.601C187.204 268.515 187.176 268.432 187.133 268.357C187.089 268.282 187.03 268.217 186.961 268.166L181.728 264.035C181.661 263.981 181.584 263.941 181.502 263.917C181.42 263.893 181.333 263.886 181.248 263.895C181.163 263.904 181.08 263.931 181.005 263.972C180.93 264.013 180.864 264.069 180.81 264.136C179.336 266.033 177.451 267.57 175.296 268.63C173.141 269.691 170.773 270.248 168.372 270.259C159.017 270.259 151.701 262.273 151.701 252.092C151.701 241.912 159.017 233.916 168.372 233.916Z" fill="black"/>
            <path d="M193.836 224.278H200.409C200.582 224.278 200.748 224.346 200.87 224.468C200.992 224.591 201.061 224.756 201.061 224.929V277.052C201.061 277.223 200.993 277.386 200.873 277.506C200.752 277.627 200.589 277.695 200.418 277.695H193.845C193.673 277.695 193.507 277.626 193.385 277.504C193.262 277.382 193.194 277.216 193.194 277.043V224.929C193.192 224.844 193.208 224.76 193.24 224.681C193.272 224.602 193.319 224.53 193.379 224.469C193.438 224.408 193.51 224.36 193.588 224.327C193.667 224.294 193.751 224.278 193.836 224.278Z" fill="black"/>
            <path d="M223.459 242.307C214.748 242.307 205.935 248.475 205.935 260.271C205.935 270.635 213.472 278.457 223.459 278.457C233.447 278.457 241.057 270.635 241.057 260.271C241.057 249.908 233.493 242.307 223.459 242.307ZM233.126 260.271C233.126 266.257 228.967 270.773 223.459 270.773C217.952 270.773 213.876 266.257 213.876 260.271C213.876 254.286 217.997 249.99 223.459 249.99C228.921 249.99 233.126 254.406 233.126 260.271Z" fill="black"/>
            <path d="M276.482 243.059H269.909C269.824 243.058 269.739 243.074 269.66 243.106C269.581 243.137 269.509 243.185 269.449 243.244C269.388 243.304 269.34 243.375 269.307 243.454C269.274 243.532 269.257 243.617 269.257 243.702V261.144C269.257 267.955 264.557 270.369 260.527 270.369C256.966 270.369 253.376 267.68 253.376 261.667V243.702C253.376 243.617 253.359 243.532 253.327 243.454C253.294 243.375 253.245 243.304 253.185 243.244C253.124 243.185 253.052 243.137 252.973 243.106C252.894 243.074 252.81 243.058 252.725 243.059H246.152C245.981 243.059 245.818 243.127 245.697 243.248C245.577 243.368 245.509 243.532 245.509 243.702V262.521C245.509 272.848 250.182 278.53 258.673 278.53C261.757 278.53 266.751 276.758 268.624 272.848L269.257 272.976V277.052C269.257 277.225 269.326 277.391 269.448 277.513C269.57 277.635 269.736 277.704 269.909 277.704H276.482C276.655 277.704 276.82 277.635 276.943 277.513C277.065 277.391 277.134 277.225 277.134 277.052V243.702C277.134 243.617 277.117 243.532 277.084 243.454C277.051 243.375 277.003 243.304 276.942 243.244C276.881 243.185 276.81 243.137 276.731 243.106C276.652 243.074 276.567 243.058 276.482 243.059Z" fill="black"/>
            <path d="M316.845 224.278H310.263C310.178 224.278 310.094 224.294 310.015 224.327C309.937 224.36 309.866 224.408 309.806 224.469C309.746 224.53 309.699 224.602 309.667 224.681C309.635 224.76 309.62 224.844 309.621 224.929V248.228L309.217 247.585C307.216 244.363 302.91 242.279 298.247 242.279C290.206 242.279 282.072 248.475 282.072 260.317C282.072 270.645 289.058 278.429 298.311 278.429C301.836 278.429 306.803 277.015 309.217 273.05L309.621 272.389V277.052C309.62 277.137 309.635 277.222 309.667 277.301C309.699 277.38 309.746 277.452 309.806 277.512C309.866 277.573 309.937 277.621 310.015 277.654C310.094 277.687 310.178 277.704 310.263 277.704H316.845C316.93 277.704 317.015 277.687 317.093 277.654C317.172 277.621 317.243 277.573 317.303 277.512C317.363 277.452 317.41 277.38 317.442 277.301C317.473 277.222 317.489 277.137 317.488 277.052V224.929C317.489 224.844 317.473 224.76 317.442 224.681C317.41 224.602 317.363 224.53 317.303 224.469C317.243 224.408 317.172 224.36 317.093 224.327C317.015 224.294 316.93 224.278 316.845 224.278ZM309.501 260.271C309.546 261.606 309.324 262.936 308.851 264.184C308.378 265.433 307.661 266.575 306.744 267.545C305.826 268.515 304.725 269.293 303.504 269.835C302.284 270.376 300.968 270.67 299.633 270.7C294.254 270.7 290.04 266.11 290.04 260.271C290.04 254.433 294.254 249.99 299.633 249.99C302.299 250.058 304.829 251.176 306.673 253.102C308.516 255.029 309.523 257.606 309.474 260.271H309.501Z" fill="black"/>
            <path d="M326.695 243.059H333.268C333.438 243.059 333.602 243.127 333.722 243.248C333.843 243.368 333.911 243.532 333.911 243.702V277.052C333.911 277.223 333.843 277.386 333.722 277.506C333.602 277.627 333.438 277.695 333.268 277.695H326.695C326.522 277.695 326.357 277.626 326.234 277.504C326.112 277.382 326.043 277.216 326.043 277.043V243.702C326.046 243.531 326.116 243.367 326.238 243.247C326.36 243.127 326.524 243.059 326.695 243.059Z" fill="black"/>
            <path d="M330.009 225.333C329.328 225.319 328.652 225.44 328.019 225.69C327.385 225.941 326.809 226.315 326.322 226.791C325.836 227.268 325.449 227.836 325.185 228.464C324.921 229.092 324.786 229.766 324.786 230.446C324.8 231.818 325.359 233.128 326.338 234.088C327.317 235.048 328.638 235.581 330.009 235.569C330.685 235.577 331.357 235.451 331.984 235.197C332.61 234.943 333.18 234.566 333.66 234.089C334.14 233.612 334.519 233.044 334.776 232.419C335.034 231.793 335.164 231.123 335.159 230.446C335.17 229.769 335.045 229.096 334.789 228.468C334.534 227.84 334.155 227.27 333.674 226.793C333.193 226.315 332.62 225.94 331.99 225.689C331.361 225.438 330.687 225.317 330.009 225.333Z" fill="black"/>
            <path d="M360.982 242.307C358.099 242.307 352.977 243.858 351.022 247.989L350.388 247.86V243.702C350.388 243.617 350.371 243.533 350.339 243.454C350.306 243.375 350.257 243.304 350.197 243.244C350.136 243.185 350.064 243.137 349.985 243.106C349.906 243.074 349.822 243.058 349.737 243.059H343.164C342.993 243.059 342.83 243.127 342.709 243.248C342.589 243.368 342.521 243.532 342.521 243.702V277.052C342.52 277.137 342.536 277.222 342.567 277.301C342.599 277.38 342.646 277.452 342.706 277.512C342.766 277.573 342.837 277.621 342.916 277.654C342.994 277.687 343.079 277.704 343.164 277.704H349.737C349.909 277.704 350.075 277.635 350.197 277.513C350.32 277.391 350.388 277.225 350.388 277.052V259.611C350.388 252.854 355.088 250.431 359.118 250.431C362.68 250.431 366.269 253.102 366.269 259.06V277.052C366.269 277.225 366.338 277.391 366.46 277.513C366.582 277.635 366.748 277.704 366.921 277.704H373.512C373.685 277.704 373.851 277.635 373.973 277.513C374.095 277.391 374.164 277.225 374.164 277.052V258.243C374.146 247.971 369.464 242.307 360.982 242.307Z" fill="black"/>
            <path d="M413.426 243.059H406.853C406.768 243.058 406.683 243.074 406.604 243.106C406.525 243.137 406.453 243.185 406.393 243.244C406.332 243.304 406.284 243.375 406.251 243.454C406.218 243.532 406.201 243.617 406.201 243.702V248.292L405.807 247.649C403.796 244.427 399.491 242.343 394.791 242.343C386.759 242.343 378.616 248.54 378.616 260.382C378.616 270.709 385.602 278.493 394.864 278.493C398.38 278.493 403.346 277.08 405.77 273.114L406.165 272.453V277.052C406.165 277.225 406.233 277.391 406.355 277.513C406.478 277.635 406.643 277.704 406.816 277.704H413.389C413.474 277.704 413.559 277.687 413.637 277.654C413.716 277.621 413.787 277.573 413.847 277.512C413.907 277.452 413.954 277.38 413.985 277.301C414.017 277.222 414.033 277.137 414.032 277.052V243.702C414.032 243.538 413.969 243.38 413.857 243.26C413.744 243.141 413.59 243.069 413.426 243.059ZM406.082 260.271C406.126 261.608 405.904 262.94 405.429 264.191C404.954 265.441 404.235 266.584 403.314 267.555C402.394 268.525 401.29 269.302 400.066 269.842C398.842 270.382 397.523 270.674 396.186 270.7C390.807 270.7 386.602 266.11 386.602 260.271C386.602 254.433 390.807 249.99 396.186 249.99C398.858 250.048 401.398 251.163 403.249 253.09C405.101 255.017 406.113 257.599 406.064 260.271H406.082Z" fill="black"/>
            <path d="M443.416 243.179C441.917 242.571 440.315 242.26 438.698 242.261C434.328 242.261 431.152 244.877 429.518 249.834L428.93 249.751V243.702C428.93 243.617 428.914 243.532 428.881 243.454C428.848 243.375 428.8 243.304 428.739 243.244C428.678 243.185 428.606 243.137 428.527 243.106C428.448 243.074 428.364 243.058 428.279 243.059H421.706C421.621 243.058 421.536 243.074 421.457 243.106C421.378 243.137 421.306 243.185 421.246 243.244C421.185 243.304 421.137 243.375 421.104 243.454C421.071 243.532 421.054 243.617 421.054 243.702V277.052C421.054 277.225 421.123 277.391 421.245 277.513C421.367 277.635 421.533 277.704 421.706 277.704H428.352C428.437 277.704 428.522 277.687 428.6 277.654C428.679 277.621 428.75 277.573 428.81 277.512C428.87 277.452 428.917 277.38 428.948 277.301C428.98 277.222 428.996 277.137 428.995 277.052V265.669C428.995 252.083 434.42 250.064 437.66 250.064C439.028 250.067 440.38 250.348 441.635 250.89C441.723 250.931 441.818 250.952 441.915 250.952C442.012 250.952 442.108 250.931 442.195 250.89C442.28 250.845 442.353 250.783 442.41 250.707C442.467 250.63 442.507 250.542 442.526 250.449L443.829 243.922C443.861 243.769 443.837 243.61 443.761 243.474C443.685 243.337 443.563 243.233 443.416 243.179Z" fill="black"/>
            <path d="M479.887 243.344C479.829 243.255 479.748 243.182 479.653 243.132C479.559 243.082 479.453 243.057 479.346 243.059H472.268C472.138 243.061 472.011 243.101 471.903 243.174C471.795 243.248 471.711 243.351 471.662 243.472L463.098 265.669L454.45 243.472C454.401 243.351 454.318 243.248 454.21 243.174C454.102 243.101 453.975 243.061 453.844 243.059H446.629C446.524 243.059 446.42 243.084 446.327 243.134C446.234 243.184 446.155 243.256 446.097 243.344C446.037 243.432 445.999 243.533 445.988 243.639C445.977 243.745 445.992 243.851 446.032 243.95L458.884 275.51L451.788 293.952C451.743 294.052 451.724 294.162 451.733 294.271C451.742 294.381 451.779 294.486 451.839 294.577C451.899 294.669 451.982 294.744 452.079 294.795C452.176 294.846 452.284 294.872 452.394 294.87H459.279C459.409 294.871 459.535 294.831 459.642 294.757C459.749 294.684 459.83 294.579 459.876 294.457L479.943 243.968C479.988 243.868 480.007 243.758 479.998 243.649C479.988 243.539 479.95 243.434 479.887 243.344Z" fill="black"/>
            <path d="M110.888 231.805C108.513 224.358 103.844 217.852 97.5494 213.217C91.2547 208.583 83.6559 206.057 75.8393 206.001C69.2306 205.963 62.7365 207.726 57.0547 211.102C51.3729 214.477 46.7182 219.337 43.5907 225.159C37.8428 226.189 32.5736 229.027 28.55 233.259C24.5265 237.491 21.9586 242.897 21.2202 248.689C20.4818 254.482 21.6113 260.359 24.4445 265.465C27.2776 270.572 31.6664 274.64 36.9721 277.08L37.6606 277.392H37.7065V269.589C34.0668 267.355 31.2174 264.038 29.5576 260.102C27.8979 256.167 27.5111 251.812 28.4514 247.646C29.3917 243.48 31.6119 239.712 34.801 236.872C37.99 234.031 41.988 232.259 46.2345 231.805L48.1623 231.603L49.0068 229.868C51.4047 224.786 55.2036 220.494 59.9569 217.497C64.7101 214.5 70.2202 212.923 75.8393 212.95C82.5348 212.997 89.0224 215.281 94.2702 219.44C99.5181 223.598 103.225 229.392 104.802 235.899L105.462 238.525H108.216C112.656 238.616 116.884 240.439 119.997 243.605C123.11 246.772 124.862 251.03 124.878 255.47C124.878 261.942 121.142 267.239 114.78 269.919V277.318L115.239 277.171C125.465 273.821 131.818 265.504 131.818 255.47C131.776 249.663 129.633 244.067 125.786 239.717C121.938 235.367 116.646 232.557 110.888 231.805Z" fill="black"/>
            <path d="M62.3818 276.492L63.9056 278.016C63.9468 278.058 63.9747 278.112 63.9859 278.17C63.9971 278.228 63.9911 278.288 63.9686 278.342C63.9462 278.397 63.9083 278.444 63.8596 278.477C63.8109 278.51 63.7535 278.529 63.6945 278.53H51.669C50.2082 278.53 48.8072 277.95 47.7743 276.917C46.7414 275.884 46.1611 274.483 46.1611 273.022V249.669C46.1611 249.588 46.1292 249.511 46.0724 249.455C46.0155 249.398 45.9385 249.366 45.8582 249.366H43.2878C43.228 249.367 43.1694 249.349 43.1192 249.317C43.0691 249.284 43.0298 249.237 43.0063 249.182C42.9827 249.127 42.976 249.067 42.9869 249.008C42.9977 248.949 43.0258 248.895 43.0675 248.852L53.2754 238.644C53.3036 238.615 53.3372 238.593 53.3742 238.577C53.4113 238.562 53.451 238.554 53.4911 238.554C53.5313 238.554 53.571 238.562 53.6081 238.577C53.6451 238.593 53.6787 238.615 53.7069 238.644L63.9056 248.852C63.9468 248.894 63.9747 248.948 63.9859 249.006C63.9971 249.064 63.9911 249.123 63.9686 249.178C63.9462 249.233 63.9083 249.28 63.8596 249.313C63.8109 249.346 63.7535 249.365 63.6945 249.366H61.0874C61.0062 249.366 60.9282 249.397 60.8699 249.454C60.8116 249.511 60.7777 249.588 60.7753 249.669V272.618C60.779 274.071 61.3564 275.463 62.3818 276.492Z" fill="black"/>
            <path d="M84.9365 276.492L86.4695 278.016C86.5112 278.059 86.5393 278.113 86.5502 278.172C86.5611 278.231 86.5543 278.291 86.5307 278.346C86.5072 278.401 86.4679 278.448 86.4178 278.481C86.3677 278.514 86.309 278.531 86.2492 278.53H74.2512C72.7904 278.53 71.3895 277.95 70.3566 276.917C69.3236 275.884 68.7434 274.483 68.7434 273.022V255.571C68.7434 255.49 68.7118 255.412 68.6552 255.354C68.5986 255.296 68.5216 255.262 68.4404 255.259H65.8425C65.7835 255.258 65.7261 255.24 65.6774 255.206C65.6287 255.173 65.5908 255.126 65.5684 255.072C65.5459 255.017 65.54 254.957 65.5512 254.899C65.5624 254.841 65.5902 254.788 65.6314 254.745L75.8301 244.556C75.8583 244.527 75.8919 244.504 75.9289 244.489C75.966 244.473 76.0057 244.465 76.0459 244.465C76.086 244.465 76.1258 244.473 76.1628 244.489C76.1998 244.504 76.2334 244.527 76.2616 244.556L86.4695 254.727C86.5112 254.77 86.5393 254.824 86.5502 254.883C86.5611 254.942 86.5543 255.002 86.5307 255.057C86.5072 255.112 86.4679 255.159 86.4178 255.192C86.3677 255.224 86.309 255.242 86.2492 255.241H83.6421C83.561 255.243 83.4839 255.277 83.4274 255.336C83.3708 255.394 83.3392 255.472 83.3392 255.553V272.618C83.3405 274.07 83.9145 275.462 84.9365 276.492Z" fill="black"/>
            <path d="M107.5 276.492L109.024 278.016C109.065 278.058 109.093 278.112 109.104 278.17C109.116 278.228 109.11 278.288 109.087 278.342C109.065 278.397 109.027 278.444 108.978 278.477C108.93 278.51 108.872 278.529 108.813 278.53H96.7784C95.3176 278.53 93.9167 277.95 92.8837 276.917C91.8508 275.884 91.2705 274.483 91.2705 273.022V261.428C91.2705 261.348 91.2386 261.271 91.1818 261.214C91.125 261.157 91.0479 261.125 90.9676 261.125H88.3973C88.3363 261.126 88.2766 261.108 88.2259 261.074C88.1752 261.04 88.1359 260.992 88.1131 260.936C88.0903 260.879 88.0851 260.817 88.0981 260.758C88.1111 260.698 88.1418 260.644 88.1861 260.602L98.394 250.403C98.4214 250.375 98.4542 250.352 98.4905 250.337C98.5268 250.322 98.5658 250.314 98.6052 250.314C98.6446 250.314 98.6836 250.322 98.7198 250.337C98.7561 250.352 98.7889 250.375 98.8163 250.403L109.024 260.602C109.069 260.644 109.099 260.698 109.112 260.758C109.125 260.817 109.12 260.879 109.097 260.936C109.074 260.992 109.035 261.04 108.984 261.074C108.934 261.108 108.874 261.126 108.813 261.125H106.197C106.117 261.125 106.039 261.157 105.983 261.214C105.926 261.271 105.894 261.348 105.894 261.428V272.618C105.898 274.071 106.475 275.463 107.5 276.492Z" fill="black"/>

    </g>
    <g class="sprite" id="cloudinary">
            <path d="M147.372 27.9163C149.779 27.921 152.152 28.478 154.311 29.5443C156.469 30.6105 158.353 32.1577 159.819 34.0668C159.871 34.136 159.937 34.1938 160.012 34.2366C160.087 34.2795 160.17 34.3064 160.256 34.3159C160.342 34.3254 160.429 34.3171 160.512 34.2916C160.595 34.2661 160.671 34.224 160.737 34.1678L165.979 29.991C166.046 29.9374 166.102 29.8712 166.143 29.796C166.185 29.7208 166.211 29.6382 166.22 29.5529C166.229 29.4676 166.222 29.3813 166.198 29.299C166.174 29.2166 166.134 29.1398 166.08 29.073C163.849 26.1778 160.983 23.8336 157.702 22.2213C154.422 20.6091 150.815 19.7717 147.16 19.7739C133.473 19.7739 122.375 31.5699 122.375 46.0739C122.375 60.578 133.51 72.374 147.16 72.374C150.815 72.3863 154.423 71.5543 157.703 69.9428C160.983 68.3314 163.847 65.9842 166.071 63.0841C166.126 63.0177 166.168 62.9406 166.193 62.8576C166.217 62.7745 166.225 62.6873 166.215 62.6012C166.204 62.5152 166.176 62.4321 166.133 62.3573C166.089 62.2825 166.03 62.2174 165.961 62.1661L160.728 58.0352C160.661 57.9814 160.584 57.9413 160.502 57.9173C160.42 57.8932 160.333 57.8857 160.248 57.895C160.163 57.9044 160.08 57.9305 160.005 57.9719C159.93 58.0133 159.864 58.0691 159.81 58.1362C158.336 60.0328 156.451 61.5696 154.296 62.6303C152.141 63.6911 149.773 64.248 147.372 64.2591C138.017 64.2591 130.701 56.2727 130.701 46.0923C130.701 35.9119 138.017 27.9163 147.372 27.9163Z" fill="black"/>
            <path d="M172.836 18.2775H179.409C179.582 18.2775 179.748 18.3462 179.87 18.4684C179.992 18.5907 180.061 18.7565 180.061 18.9293V71.0521C180.061 71.2225 179.993 71.386 179.873 71.5065C179.752 71.627 179.589 71.6947 179.418 71.6947H172.845C172.673 71.6947 172.507 71.626 172.385 71.5038C172.262 71.3816 172.194 71.2158 172.194 71.0429V18.9293C172.192 18.8442 172.208 18.7596 172.24 18.6806C172.272 18.6016 172.319 18.5296 172.379 18.469C172.438 18.4083 172.51 18.3602 172.588 18.3273C172.667 18.2945 172.751 18.2775 172.836 18.2775Z" fill="black"/>
            <path d="M202.459 36.3067C193.748 36.3067 184.935 42.4755 184.935 54.2715C184.935 64.6355 192.472 72.4566 202.459 72.4566C212.447 72.4566 220.057 64.6355 220.057 54.2715C220.057 43.9075 212.493 36.3067 202.459 36.3067ZM212.126 54.2715C212.126 60.2567 207.967 64.7732 202.459 64.7732C196.952 64.7732 192.876 60.2567 192.876 54.2715C192.876 48.2863 196.997 43.9901 202.459 43.9901C207.921 43.9901 212.126 48.4056 212.126 54.2715Z" fill="black"/>
            <path d="M255.482 37.0594H248.909C248.824 37.0582 248.739 37.0739 248.66 37.1056C248.581 37.1374 248.509 37.1845 248.449 37.2443C248.388 37.3041 248.34 37.3754 248.307 37.4539C248.274 37.5325 248.257 37.6168 248.257 37.702V55.1435C248.257 61.9549 243.557 64.3692 239.527 64.3692C235.966 64.3692 232.376 61.6796 232.376 55.6668V37.702C232.376 37.6168 232.359 37.5325 232.327 37.4539C232.294 37.3754 232.245 37.3041 232.185 37.2443C232.124 37.1845 232.052 37.1374 231.973 37.1056C231.894 37.0739 231.81 37.0582 231.725 37.0594H225.152C224.981 37.0594 224.818 37.1271 224.697 37.2476C224.577 37.3681 224.509 37.5315 224.509 37.702V56.5205C224.509 66.8478 229.182 72.5301 237.673 72.5301C240.757 72.5301 245.751 70.7584 247.624 66.8478L248.257 66.9763V71.0521C248.257 71.225 248.326 71.3907 248.448 71.513C248.57 71.6352 248.736 71.7039 248.909 71.7039H255.482C255.655 71.7039 255.82 71.6352 255.943 71.513C256.065 71.3907 256.134 71.225 256.134 71.0521V37.702C256.134 37.6168 256.117 37.5325 256.084 37.4539C256.051 37.3754 256.003 37.3041 255.942 37.2443C255.881 37.1845 255.81 37.1374 255.731 37.1056C255.652 37.0739 255.567 37.0582 255.482 37.0594Z" fill="black"/>
            <path d="M295.845 18.2775H289.263C289.178 18.2775 289.094 18.2945 289.015 18.3273C288.937 18.3602 288.866 18.4083 288.806 18.469C288.746 18.5296 288.699 18.6016 288.667 18.6806C288.635 18.7596 288.62 18.8442 288.621 18.9293V42.2276L288.217 41.585C286.216 38.3629 281.91 36.2791 277.247 36.2791C269.206 36.2791 261.072 42.4754 261.072 54.3174C261.072 64.6446 268.058 72.4291 277.311 72.4291C280.836 72.4291 285.803 71.0154 288.217 67.0497L288.621 66.3888V71.0521C288.62 71.1373 288.635 71.2218 288.667 71.3008C288.699 71.3799 288.746 71.4518 288.806 71.5124C288.866 71.5731 288.937 71.6212 289.015 71.6541C289.094 71.687 289.178 71.7039 289.263 71.7039H295.845C295.93 71.7039 296.015 71.687 296.093 71.6541C296.172 71.6212 296.243 71.5731 296.303 71.5124C296.363 71.4518 296.41 71.3799 296.442 71.3008C296.473 71.2218 296.489 71.1373 296.488 71.0521V18.9293C296.489 18.8442 296.473 18.7596 296.442 18.6806C296.41 18.6016 296.363 18.5296 296.303 18.469C296.243 18.4083 296.172 18.3602 296.093 18.3273C296.015 18.2945 295.93 18.2775 295.845 18.2775ZM288.501 54.2715C288.546 55.606 288.324 56.936 287.851 58.1844C287.378 59.4329 286.661 60.5752 285.744 61.545C284.826 62.5148 283.725 63.293 282.504 63.8345C281.284 64.376 279.968 64.6701 278.633 64.6997C273.254 64.6997 269.04 60.1098 269.04 54.2715C269.04 48.4331 273.254 43.9901 278.633 43.9901C281.299 44.0575 283.829 45.1764 285.673 47.1025C287.516 49.0286 288.523 51.6057 288.474 54.2715H288.501Z" fill="black"/>
            <path d="M305.695 37.0594H312.268C312.438 37.0594 312.602 37.1271 312.722 37.2476C312.843 37.3681 312.911 37.5315 312.911 37.702V71.0521C312.911 71.2225 312.843 71.386 312.722 71.5065C312.602 71.627 312.438 71.6947 312.268 71.6947H305.695C305.522 71.6947 305.357 71.626 305.234 71.5038C305.112 71.3816 305.043 71.2158 305.043 71.0429V37.702C305.046 37.5307 305.116 37.3673 305.238 37.247C305.36 37.1268 305.524 37.0594 305.695 37.0594Z" fill="black"/>
            <path d="M309.009 19.3332C308.328 19.3186 307.652 19.44 307.019 19.6904C306.385 19.9408 305.809 20.3151 305.322 20.7913C304.836 21.2676 304.449 21.8362 304.185 22.4639C303.921 23.0915 303.786 23.7655 303.786 24.4464C303.8 25.8179 304.359 27.1277 305.338 28.088C306.317 29.0484 307.638 29.5809 309.009 29.5687C309.685 29.5773 310.357 29.4508 310.984 29.1968C311.61 28.9427 312.18 28.5662 312.66 28.0892C313.139 27.6122 313.519 27.0443 313.776 26.4188C314.034 25.7933 314.164 25.1227 314.159 24.4464C314.17 23.7687 314.045 23.0957 313.789 22.4678C313.534 21.8399 313.155 21.2701 312.674 20.7925C312.193 20.3149 311.62 19.9395 310.99 19.6887C310.361 19.438 309.687 19.3171 309.009 19.3332Z" fill="black"/>
            <path d="M339.982 36.3067C337.099 36.3067 331.977 37.858 330.022 41.9889L329.388 41.8604V37.702C329.388 37.6168 329.371 37.5325 329.339 37.4539C329.306 37.3754 329.257 37.3041 329.197 37.2443C329.136 37.1845 329.064 37.1374 328.985 37.1056C328.906 37.0739 328.822 37.0582 328.737 37.0594H322.164C321.993 37.0594 321.83 37.1271 321.709 37.2476C321.589 37.3681 321.521 37.5316 321.521 37.702V71.0521C321.52 71.1373 321.536 71.2218 321.567 71.3009C321.599 71.3799 321.646 71.4518 321.706 71.5125C321.766 71.5731 321.837 71.6213 321.916 71.6541C321.994 71.687 322.079 71.7039 322.164 71.7039H328.737C328.909 71.7039 329.075 71.6352 329.197 71.513C329.32 71.3908 329.388 71.225 329.388 71.0521V53.6105C329.388 46.8542 334.088 44.4308 338.118 44.4308C341.68 44.4308 345.269 47.1021 345.269 53.0598V71.0521C345.269 71.225 345.338 71.3908 345.46 71.513C345.582 71.6352 345.748 71.7039 345.921 71.7039H352.512C352.685 71.7039 352.851 71.6352 352.973 71.513C353.095 71.3908 353.164 71.225 353.164 71.0521V52.2428C353.146 41.9706 348.464 36.3067 339.982 36.3067Z" fill="black"/>
            <path d="M392.426 37.0594H385.853C385.768 37.0582 385.683 37.0739 385.604 37.1056C385.525 37.1374 385.453 37.1845 385.393 37.2443C385.332 37.3041 385.284 37.3754 385.251 37.4539C385.218 37.5325 385.201 37.6168 385.201 37.702V42.2919L384.807 41.6493C382.796 38.4272 378.491 36.3434 373.791 36.3434C365.759 36.3434 357.616 42.5397 357.616 54.3816C357.616 64.7089 364.602 72.4933 373.864 72.4933C377.38 72.4933 382.346 71.0797 384.77 67.114L385.165 66.453V71.0521C385.165 71.225 385.233 71.3907 385.355 71.513C385.478 71.6352 385.643 71.7039 385.816 71.7039H392.389C392.474 71.7039 392.559 71.687 392.637 71.6541C392.716 71.6212 392.787 71.5731 392.847 71.5124C392.906 71.4518 392.954 71.3799 392.985 71.3008C393.017 71.2218 393.033 71.1373 393.032 71.0521V37.702C393.032 37.5377 392.969 37.3796 392.857 37.2601C392.744 37.1406 392.59 37.0688 392.426 37.0594ZM385.082 54.2715C385.126 55.6082 384.904 56.9404 384.429 58.1907C383.954 59.441 383.235 60.5844 382.314 61.5546C381.394 62.5248 380.29 63.3024 379.066 63.8423C377.842 64.3822 376.523 64.6737 375.186 64.6997C369.807 64.6997 365.602 60.1098 365.602 54.2715C365.602 48.4331 369.807 43.9901 375.186 43.9901C377.858 44.048 380.398 45.1626 382.249 47.0898C384.101 49.017 385.113 51.5995 385.064 54.2715H385.082Z" fill="black"/>
            <path d="M422.416 37.1787C420.917 36.5713 419.315 36.2596 417.698 36.2607C413.328 36.2607 410.152 38.877 408.518 43.8341L407.93 43.7514V37.702C407.93 37.6168 407.914 37.5325 407.881 37.4539C407.848 37.3753 407.8 37.3041 407.739 37.2443C407.678 37.1845 407.606 37.1374 407.527 37.1056C407.448 37.0739 407.364 37.0582 407.279 37.0594H400.706C400.621 37.0582 400.536 37.0739 400.457 37.1056C400.378 37.1374 400.306 37.1845 400.246 37.2443C400.185 37.3041 400.137 37.3753 400.104 37.4539C400.071 37.5325 400.054 37.6168 400.054 37.702V71.0521C400.054 71.225 400.123 71.3907 400.245 71.513C400.367 71.6352 400.533 71.7039 400.706 71.7039H407.352C407.437 71.7039 407.522 71.687 407.6 71.6541C407.679 71.6212 407.75 71.5731 407.81 71.5124C407.87 71.4518 407.917 71.3799 407.948 71.3008C407.98 71.2218 407.996 71.1373 407.995 71.0521V59.6692C407.995 46.0831 413.42 44.0635 416.66 44.0635C418.028 44.067 419.38 44.3481 420.635 44.8897C420.723 44.9307 420.818 44.952 420.915 44.952C421.012 44.952 421.108 44.9307 421.195 44.8897C421.28 44.8454 421.353 44.7828 421.41 44.7066C421.467 44.6304 421.507 44.5424 421.526 44.4491L422.829 37.9223C422.861 37.7694 422.837 37.6103 422.761 37.4738C422.685 37.3374 422.563 37.2326 422.416 37.1787Z" fill="black"/>
            <path d="M458.887 37.344C458.829 37.2546 458.748 37.1817 458.653 37.1319C458.559 37.0822 458.453 37.0572 458.346 37.0594H451.268C451.138 37.0607 451.011 37.1007 450.903 37.1742C450.795 37.2477 450.711 37.3515 450.662 37.4725L442.098 59.6692L433.45 37.4725C433.401 37.3515 433.318 37.2477 433.21 37.1742C433.102 37.1007 432.975 37.0607 432.844 37.0594H425.629C425.524 37.0588 425.42 37.0845 425.327 37.1342C425.234 37.1838 425.155 37.256 425.097 37.344C425.037 37.4317 424.999 37.533 424.988 37.6388C424.977 37.7445 424.992 37.8514 425.032 37.9498L437.884 69.5099L430.788 87.9521C430.743 88.0522 430.724 88.162 430.733 88.2713C430.742 88.3806 430.779 88.4859 430.839 88.5774C430.899 88.6689 430.982 88.7438 431.079 88.7949C431.176 88.8461 431.284 88.8719 431.394 88.8701H438.279C438.409 88.8706 438.535 88.8313 438.642 88.7574C438.749 88.6836 438.83 88.5787 438.876 88.457L458.943 37.9682C458.988 37.8683 459.007 37.7582 458.998 37.6488C458.988 37.5393 458.95 37.4343 458.887 37.344Z" fill="black"/>
            <path d="M89.8877 25.805C87.5127 18.3577 82.8442 11.8519 76.5494 7.21737C70.2547 2.58287 62.6559 0.0569287 54.8393 0.00059813C48.2306 -0.0372978 41.7365 1.72621 36.0547 5.10164C30.3729 8.47708 25.7182 13.3368 22.5907 19.1588C16.8428 20.1889 11.5736 23.0265 7.55002 27.2587C3.52649 31.4909 0.958635 36.8967 0.220213 42.6894C-0.518208 48.4821 0.611343 54.3592 3.44446 59.4654C6.27758 64.5717 10.6664 68.6405 15.9721 71.0796L16.6606 71.3918H16.7065V63.5889C13.0668 61.3547 10.2174 58.0376 8.55764 54.1025C6.89793 50.1674 6.5111 45.8116 7.45138 41.6456C8.39166 37.4796 10.6119 33.7123 13.801 30.8716C16.99 28.0309 20.988 26.2592 25.2345 25.805L27.1623 25.603L28.0068 23.868C30.4047 18.7862 34.2036 14.4945 38.9569 11.4975C43.7101 8.50047 49.2202 6.92272 54.8393 6.94969C61.5348 6.99693 68.0224 9.28137 73.2702 13.4398C78.5181 17.5981 82.225 23.3917 83.8015 29.8991L84.4625 32.5246H87.2164C91.656 32.6156 95.8839 34.4391 98.9971 37.6054C102.11 40.7718 103.862 45.03 103.878 49.4704C103.878 55.9422 100.142 61.2389 93.78 63.9194V71.3183L94.2389 71.1714C104.465 67.8208 110.818 59.5039 110.818 49.4704C110.776 43.6632 108.633 38.0674 104.786 33.7173C100.938 29.3671 95.6463 26.5565 89.8877 25.805Z" fill="black"/>
            <path d="M41.3818 70.4921L42.9056 72.016C42.9468 72.0583 42.9747 72.1118 42.9859 72.1697C42.9971 72.2277 42.9911 72.2877 42.9686 72.3423C42.9462 72.3969 42.9083 72.4438 42.8596 72.4771C42.8109 72.5105 42.7535 72.5289 42.6945 72.5301H30.669C29.2082 72.5301 27.8072 71.9498 26.7743 70.9168C25.7414 69.8839 25.1611 68.483 25.1611 67.0222V43.6688C25.1611 43.5885 25.1292 43.5114 25.0724 43.4546C25.0155 43.3978 24.9385 43.3659 24.8582 43.3659H22.2878C22.228 43.3665 22.1694 43.3494 22.1192 43.3167C22.0691 43.2841 22.0298 43.2373 22.0063 43.1823C21.9827 43.1273 21.976 43.0666 21.9869 43.0078C21.9977 42.949 22.0258 42.8947 22.0675 42.8518L32.2754 32.6439C32.3036 32.6153 32.3372 32.5926 32.3742 32.5771C32.4113 32.5616 32.451 32.5536 32.4911 32.5536C32.5313 32.5536 32.571 32.5616 32.6081 32.5771C32.6451 32.5926 32.6787 32.6153 32.7069 32.6439L42.9056 42.8518C42.9468 42.8942 42.9747 42.9476 42.9859 43.0056C42.9971 43.0635 42.9911 43.1235 42.9686 43.1781C42.9462 43.2327 42.9083 43.2796 42.8596 43.313C42.8109 43.3463 42.7535 43.3647 42.6945 43.3659H40.0874C40.0062 43.3659 39.9282 43.3975 39.8699 43.454C39.8116 43.5106 39.7777 43.5877 39.7753 43.6688V66.6183C39.779 68.0709 40.3564 69.4632 41.3818 70.4921Z" fill="black"/>
            <path d="M63.9365 70.4921L65.4695 72.016C65.5112 72.0589 65.5393 72.1132 65.5502 72.172C65.5611 72.2308 65.5543 72.2915 65.5307 72.3465C65.5072 72.4015 65.4679 72.4482 65.4178 72.4809C65.3677 72.5136 65.309 72.5307 65.2492 72.5301H53.2512C51.7904 72.5301 50.3895 71.9498 49.3566 70.9168C48.3236 69.8839 47.7434 68.483 47.7434 67.0222V49.5714C47.7434 49.4902 47.7118 49.4122 47.6552 49.3539C47.5986 49.2956 47.5216 49.2617 47.4404 49.2593H44.8425C44.7835 49.2581 44.7261 49.2397 44.6774 49.2064C44.6287 49.173 44.5908 49.1261 44.5684 49.0715C44.5459 49.0169 44.54 48.9569 44.5512 48.899C44.5624 48.841 44.5902 48.7876 44.6314 48.7452L54.8301 38.5557C54.8583 38.5271 54.8919 38.5044 54.9289 38.4889C54.966 38.4734 55.0057 38.4654 55.0459 38.4654C55.086 38.4654 55.1258 38.4734 55.1628 38.4889C55.1998 38.5044 55.2334 38.5271 55.2616 38.5557L65.4695 48.7269C65.5112 48.7698 65.5393 48.824 65.5502 48.8829C65.5611 48.9417 65.5543 49.0024 65.5307 49.0574C65.5072 49.1123 65.4679 49.1591 65.4178 49.1918C65.3677 49.2245 65.309 49.2416 65.2492 49.241H62.6421C62.561 49.2433 62.4839 49.2773 62.4274 49.3355C62.3708 49.3938 62.3392 49.4719 62.3392 49.5531V66.6183C62.3405 68.0696 62.9145 69.4617 63.9365 70.4921Z" fill="black"/>
            <path d="M86.5004 70.4921L88.0242 72.016C88.0654 72.0583 88.0933 72.1117 88.1045 72.1697C88.1157 72.2277 88.1097 72.2877 88.0873 72.3423C88.0648 72.3969 88.0269 72.4437 87.9782 72.4771C87.9295 72.5105 87.8721 72.5289 87.8131 72.53H75.7784C74.3176 72.53 72.9167 71.9498 71.8837 70.9168C70.8508 69.8839 70.2705 68.483 70.2705 67.0222V55.4281C70.2705 55.3478 70.2386 55.2707 70.1818 55.2139C70.125 55.1571 70.0479 55.1252 69.9676 55.1252H67.3973C67.3363 55.1258 67.2766 55.1081 67.2259 55.0743C67.1752 55.0405 67.1359 54.9921 67.1131 54.9356C67.0903 54.8791 67.0851 54.817 67.0981 54.7575C67.1111 54.698 67.1418 54.6438 67.1861 54.6019L77.394 44.4032C77.4214 44.3749 77.4542 44.3524 77.4905 44.337C77.5268 44.3216 77.5658 44.3137 77.6052 44.3137C77.6446 44.3137 77.6836 44.3216 77.7198 44.337C77.7561 44.3524 77.7889 44.3749 77.8163 44.4032L88.0242 54.6019C88.0685 54.6438 88.0992 54.698 88.1123 54.7575C88.1253 54.817 88.1201 54.8791 88.0973 54.9356C88.0744 54.9921 88.0351 55.0405 87.9844 55.0743C87.9337 55.1081 87.874 55.1258 87.8131 55.1252H85.1969C85.1165 55.1252 85.0395 55.1571 84.9827 55.2139C84.9258 55.2707 84.8939 55.3478 84.8939 55.4281V66.6183C84.8976 68.0709 85.475 69.4632 86.5004 70.4921Z" fill="black"/>
    </g>
</svg>